<mxfile host="app.diagrams.net" agent="Mozilla/5.0 (Windows NT 10.0; Win64; x64) AppleWebKit/537.36 (KHTML, like Gecko) Chrome/135.0.0.0 Safari/537.36" version="26.2.15">
  <diagram name="第 1 页" id="aMkT2yb_3ABXf16ox4hE">
    <mxGraphModel dx="1514" dy="777" grid="1" gridSize="10" guides="1" tooltips="1" connect="1" arrows="1" fold="1" page="1" pageScale="1" pageWidth="827" pageHeight="1169" math="0" shadow="0">
      <root>
        <mxCell id="0" />
        <mxCell id="1" parent="0" />
        <mxCell id="VbgOxsWMJbJemNrP68dz-126" value="" style="rounded=1;whiteSpace=wrap;html=1;dashed=1;" vertex="1" parent="1">
          <mxGeometry x="10" y="204.64" width="790" height="125.36" as="geometry" />
        </mxCell>
        <mxCell id="VbgOxsWMJbJemNrP68dz-125" value="" style="rounded=1;whiteSpace=wrap;html=1;dashed=1;fillColor=none;" vertex="1" parent="1">
          <mxGeometry x="10" y="490" width="750" height="126.56" as="geometry" />
        </mxCell>
        <mxCell id="VErfhOKP2oG6R9ijQwRs-65" value="" style="rounded=1;whiteSpace=wrap;html=1;fillColor=#cce5ff;strokeColor=#36393d;" parent="1" vertex="1">
          <mxGeometry x="362" y="210.02" width="138" height="92.86" as="geometry" />
        </mxCell>
        <mxCell id="VbgOxsWMJbJemNrP68dz-68" style="edgeStyle=orthogonalEdgeStyle;rounded=0;orthogonalLoop=1;jettySize=auto;html=1;exitX=1;exitY=0.5;exitDx=0;exitDy=0;entryX=0.5;entryY=1;entryDx=0;entryDy=0;" edge="1" parent="1" source="VErfhOKP2oG6R9ijQwRs-42" target="VErfhOKP2oG6R9ijQwRs-40">
          <mxGeometry relative="1" as="geometry" />
        </mxCell>
        <mxCell id="VErfhOKP2oG6R9ijQwRs-42" value="" style="rounded=1;whiteSpace=wrap;html=1;fillColor=none;dashed=1;arcSize=10;" parent="1" vertex="1">
          <mxGeometry x="8.96" y="329.01" width="201.04" height="160" as="geometry" />
        </mxCell>
        <mxCell id="VErfhOKP2oG6R9ijQwRs-4" value="" style="shape=image;verticalLabelPosition=bottom;labelBackgroundColor=default;verticalAlign=top;aspect=fixed;imageAspect=0;image=data:image/png,iVBORw0KGgoAAAANSUhEUgAAAIAAAABgCAYAAADVenpJAAAAAXNSR0IArs4c6QAAAARnQU1BAACxjwv8YQUAAAAJcEhZcwAADsMAAA7DAcdvqGQAAHgNSURBVHhe7P3Xr+1pmt+HfX45rxx23vvkU3UqdKXumu6enprAGQYxeSwORZk0YEOybNG2JMPgDSkUAV8YMgxKlmFd+EIgCcOiZJMKpk1LJqdJT+iZjtWV66SdV86/HH3xrn1Ote3/wF7AOXtj7bV+67fe94nf5/s8r/Thhx9W/P8f/z/5+PDDDyXpww8/rP7D/91/RFUWVGUByEiAJMtIskxZFEgSyJKELMsUZUlZllBBWUFZ5kiShCwrAJRliSIrVFRUVUUFSABISLIEVQWV+JuiqlTVjfxVUInPVVWFqiypqkpcV5KgKqmqkjRNUDQDXTeo8ow0z/nX/rt/CVVVQZIoyoqPf/ZTnj99giTLRGmCREVVFdhmHUkBQ4WryZqaqSE3b3P69EsoclzP45XjOkgGi9Wcg50+i01MlSVIioasgFpmpGXJcDSlXa9h2BZ7vR5lkVNVFWmpkCYJdveI0y8+4vaj21Qk/PgPPqZTq9HtNLm8HlJWEopuMV+ueHCyy2C8wDQNNFlG1SqyIkBvGmRJSbflcTFZcmf/iMX0kkHsU8QWUlVRskGpJJaRzHFd43oVkFYaQZSw19S5fXyHWjkjKGp8dn2GpkkYksPv/Lf/R3z44YeS8sEHH3z4gx/8EWVRoCoKVQVIstg4sXNUZSl+lySqCsqyQFIUJAnKogRA3r5XkiXK7caVWyGRJIkKqIpCXLuqQIKyKpEkBUmSkCRJXFcCRVGQJUkIW1VuhUcIpiIrFHlOWYGqaiiyxI9+8nM++fwx33r3G5iGgePVefT6Ix688ohvvPkN3nnnXd5771scHR8RpwVnF2dIskrNMTh9fo5S5kBJnkS4NYckjSjygtl4TFEpSGXGcDaDqiKIIrKkwDBsNEPl2eWI6XzKeLbm6dU1y82YMMtYL0452j9gOnjGdFJgaDq6KnM+nKPp8N6bt1jHEo4mUa9bLFYrNEVGkhXaZkzv5C5xVtK1Y8AnzFzSZIjjtrkeLlgFG4os5p3X3kORIpI043Luk+YVOx2HTZzwL//pP8E//n/+IZZ9yHod4EgJzyYxd+oWdx6+x/e///2/rXzwwQcf/v4f/IHQXsRGybLYJEkSGitJQrOlGwHZCkWFRFmBIstUZYUsS4BEVVWUW6UGIUxUJdJ28yVZ3gqVLDZXkoXwbO2FJKQNWaqoygpJEdboRioloCpzkGRkWUaWJLI05Y9++BN+/LNP6HWa7O70kRWZOE7wfR8JqNcbHB7s861vvc8vf+fbvPXON/ln//z3kaiQZRlJkrBNCwXIigJTUtBMnRKJ/d0+y/UGRVHJi5xX7h8R+CH1eg0/SJGoMAyDLFdYLHwsq8FssWA6j3jl7RPeOlT55OkYVZWxLQffD/nzf+Ev0Wy2ePzVE9545S6KoiJrK7KqRDY1et09/vDjMwxVJUo3PL3wycMYRaswZBdNV7m4umA4XjNdp1SqTClBEqXYlsGnP/2SfreDqcz55HKG1zFZrlIWccb773z3pQD84Q9+gCQrwjSL/RWLXFVUldBwabvQVQV5nm41VmxiCZSlMOtiU6FC/C5RISEJ61GKhRaWRGwuCK8grIBMVZWUwmwIdyRBkWeUZYWqqpRlhYywHuXWokiSuGZRint98uyMH/7oJ/z0o095/Oycb733FooiXEmSpuRFThTHQMW/+L0fCBclvjB/9a/+ZVRVYz2foSgqpmWx2vh4joYqSai6hirLJGmGo+vs7u2yWm3wXIdavYFnabQbNSRJ4vjwiJolMzgf8+XZij/7p77Fyk/JsgJdN/jpj39IGs2Ig5RakZI4S9K44tlgxvVkxcdPnpLGKXVD42LqYyg6mllxPYxI8ogyL6gUieO7TZaziLfv1ZjNE+IckjTHMmQ2QcgilFDlkihUsAzww5zvfut7fP/73//b0ocfflj9nf/N/5aiKLa+X3mx6VBRlSWyLKNsNQRJIi9KKAuQFKhKoe1IW5ex9fNbLa4QPl/abrq4BkhIIu4AZElGUWQkJMoyp7z5TFXfWoGCPM+RVU0IUCXuqywLyrJENywRWlCRpQmSJIuYAFBk8T2KskSRZXRdx/McHtw9odtp8w/+4T+5sTvIUsm/8d//K+i6Tp7nxHHMP/2nv8tuv8dmPiGrZCCjXmvQaTeZLzbU6jXu3TlGUQ2adZfA90nzErdW4z//L/6vyFLGL73/bT757DGD0ZgoThAhjfiOVVny6M4eC3/B9WSAahvMViFyVSGpJc3KwFdV0iRC1m3i9ZpWZ5coXZPFPvNIgrREUiQOdz0mm4DdrkMS5CyWGUGW8+CoznQBRZZiuirTxYa/8T/+Wy+DwP/1v/8fCA1E+O+qqlAUhbIsqIoctm5BUTRh9m9iAhCCI2+18EXEJ1HdmPwyp6q2MUJZUknSC0sC1Qvtq8oKWRHxQFmIwHL7EnRNpSpLsjxDVhRkRd0KkAgMyyJH1U3yIhcXk6QX930jiLIsvp8kgSILa4MEWV6SZxmyJD7MNDTKSkLXVY4Pdvn2t97mZz/8IZeDMbals9dr0e7u8tGnX0KZo+sa01VIUVToukqvYRFFCbqu8z/9n/yb/IP/7B/x9NkzDE1luAiRJBnL1KhZGkWeYhomd245hKHEYOazWI0J44CaYaDbbX7+7Iyao2KgIkkViaQSJQm2qxAEORoKcZ7heSqe4THZrGjqGnEl0VYrlllFkOakaYUqSfQ7DSw15S/9lX+HDz/8UNjrG1NcvIi8Zcqy3GrVVjO3CyuMgBCCsizFBm6FppKEDIjIfqv9soKsbK+HiPSFJbjZn5cWo6qql59bbeOMqiROU4qte6nKiiLPSZOILBfPy7JMlkRIlbAWVZHDzbWKHMqcMkspsoQ8S0nTlCSJydJse68v79u2TKgqsjTn8bNz/u7/8b/gi4spnqXh2ia/8zu/wwff+zaqpr9YgywrQII0y0mSlCQRWh5s1oRR9CK+KIqCNE0pi5IsS8myHEmqCAOdNK24HFwyXQR0PZukkDmbXaGpMkkuMY1S1lmFY5sYWkUS5uhUxGVOJUlQqVzNFpRlSaKYVHnB00VCt97DkgCpwpRL1oHP1TIWiw/IbCP4oii3aeDNwlcosgyUKJoG2+eKQpjeqirEhlXVNh3cppFlAVUp0rY8oyqKrYCJHZeohNvIU7FJ2/SpqsTnF0VBWeTba1TI26Avz3PKm+yhyFFUfXuvBXlZbr9D8TIGqURIK21jBElWttmNiErYBptFlkL18p6XyyVlWZLnGUWeU+QZcRSTl0Iqdd1ElhWiMBCWTYK8LEmSjLIUsRCSTJzmNNtdsiQhK8BPCgzTRNE0NNMiLyWyUmIZpEyXa8o8Jcxyiqzg9Drg+WiDWilokoxlGfRNFdNQGY0W2IZLUUog61BJaBKEcYYkS+RZxXK1othmV4+vL1kVQjk3SUWSZzRrYo1eCEC5DepuNukmEMxzYVKrqtpqb0lZpGKzbjT5xsdvBedGK278vSQJ6yAWWGxMdRMjbHP7shSbLf4JISxFBPIisBOmvoBtwFhkCYqiblX3xohIFHm6zQ7UG3HbXksSPyuoKolKkknTBCphIaoioyqy7T0V2yxFoiwryrJAtWrM/JQ4jvhP/9P/kxBAVSMtRVxhmAaWbZEUEig6YVryf/j7f58kTUFRhRXYil6RZZRIaLoBksJf+Uu/zZ/803+GfrOL4eiYtomhQRGkyFXFauEzT3JWmwhdk5msNlhSRSUXSEhYtkoe59QVCc+zUWRwywJNU1A0FUWqaEgStquQ5BVXk/Rm/4UACDMsvjDbAFBYg61p32oigKxo27dubbjY+hdmX7q5HuXWrLLdSgHGbJ8Q2l+J17z4nJstkwRmUJUlVNvgFGFG823kjyRTFvkWf9gKkfBPFHlCUZXINwu/tS6UW1GoMqo8oSwKZPEW2GYlmqqIWEEWqenN17wezQAJ0zT48nSALJWkWUmY5OiaKnL4qiTLC7I8J88yvvtL75BLJpuNT1FJ2G6duueBolLv7CMZLrVGG8Mw6HT7/M//+r/B3/63/23+xv/wX+ekt0Opiw3UVJm8rKgqCOOCtuuxygqCTYYhV4TrDNdSWAcl60WEYxsMoxwpL1DVCk1WyRWZMBGYinoT4wMiCPw7//4LDZKkbSBYChNaIaEqAhG8CdKyXGjpLz5uony2AeGN5ornxEZLW50UjxcLvH2NvE0phTBtn2ebmbzYC7EQkixT5tkWsRQBpghGEZYCkGVlKyAiHlAVhaLIRQSuKKRJjKHKL69JRbtZZ7ZJXt5lJd5XAe+9+x5/7c9/wD/8pz8iDn0UTUMqSyaLFc1mmywJsRwPCYk37/V5cPc2/+i//n0sXaXdcGnVHTTdQFPAMAxcr0aepaiqRr3ZYj4dYxsGy7WPV3NZ+z7/+Ps/4aNPfsx8NUUuJaQKSqVCqyoqWfggSQJF0qHIiSoRZBd5Sa1pkvoJaV5hGjKyoRBGKUlS8jf/Z//uL2YBN1G48MXboGwbE8jyjc8QCF++NcVsfeyNlRCav92o7e/CF29TRLFzLxa83P5NvKfc/m3rR28sydZKyLLyIjiFEklWhRUpb/y+EBFxPyI+eSGM2wxHAFwihlEUVQhjnlBu712WJFqtJpOFL1LhqkKSFVRZpK7/y7/1byGnKbppUGom4WZFq9NjvVqiajqSBI5XQ05j/KzAdlyyJNm6lAqoSOIE3TDIsoSyKCnKClVT0TSdLEuRAc0wBPaBTFlklEXJDz9+wpenVwyHA4aDx8R5gSHJhGmB62goeclmi7nkeYmmymRZiaIKlau2W3KjWzcCILKASvhIEfxB9bXNv7HjYvFvNGXrKrYbcOMvb/T8JvevSmG+xX8vI33x1I2OVUC5hY1vYgURlN3ECtKLDEFAxVTiXm8eVXUjPNtgchvgib9t3UtZkOfpC+EqixLLrRNkMlFWEaUlYVbx7/7NvyHsnrRFH6lQVRlNkVAVFafTp1A0NN3A8+pohoWmqfhBAEAcBGzSDE03if0NlqkThhFxHFGUJZplk2Ux/b0jNMPENA10XUczTFRFeQG4GbqBJkNRCGzj/bde4V/509/le++9yfe+/Wt8+70PuHXndWRVIYxL1kWFVEoUWYkkg6XKWIZClQMFuJZCw1OFz/+aFVY++OCDD3/v939vu9FbX3mjPTeLe6Nd22KOvNVMaeu7X2zmjenfapwIv15uBIAsixSyuglA2MrGjTe40fwbcb0RWYRwiuvfvHH7+u3rZEV5eU3YWgQJyq9jFQLDkCSIAx9TE7iApkhoCvzgB39MnObIkrhXGZCkin/zr/02tu1Q3ShDkRGEIbqmkhcFjuMiK8LCuPUmwWpBVZYkaYqmati2jV5G5CWkacFyPkOzHNQqQ1YN8jyjLEthYfOCohBZT1kWWLZDmsS4jkW/VefhnSPef+c1pKLAMuv0O7u4ToPReIxmyKiaTF5K5Ntg3FJloqwgisUaShV87zsf8P3vf/9vb9dLbJfYbLbaW5Hn2de0X6RnAn0rXmjljbkX1UQBvrww61uTLgRKuIqiuNkAEWHcCMaNht9kBiKG2FqLrTZvL7W1QiJQ3VYaqKgoi4KiyJAQ1xBBpLBOVVUiVYWoat64GkSxiu3PqqooKlAkkd6pUoUqVfxb//pf47W33iPcrCnLnEqCIAiwbIvFfEa90RTpbJZhmiaLyQhD12n1dqjX6yRxTImMnyukWYHtuli2TT3fIJUpSRQgI8CrqgLLsijynAqwbEe4J1kizQtq7R5lWRFuNrz/3pv81d/+Tf7Cr73Lv/Jnfplf/5Vf5903vs13vvkn6db2UCQFU1eJ8wpDNdAlFduy6PftF+spikG//3svtPzmUb3wrWKjRbR8s7EvgzlhiquXVqUSwRjb3P4mFvj/9ihvEMUXWv4yG7h5CEu0vcY2jeRGEG5ec2NvShHgvagg/n9ceysYNxnINo+/eUiShGubhHFE3bP59/7Wv8OvfvBdZCrqrTambWHqOkkYUms0SUKfZqvFfDYnDgJ0y2K1XBFHEYZlMbi8QNMkKhSSOCLPcxRFYTadYTsuUQmK6aIZJpvVkp3jOyTrGev1BtPxSKKIIkuFhfEauF6dNMtQZMiLUigTFY3uDoos8ejeIbutGlUaIWkWr9x/iGnWOd474tnZKUVRkqY5vp/zK9/9lZfFoN/7/d9/sQBfX1aQBGwqK4AAfV5q/k1WW4mizRZefaH13Ph8sUEvt3UrGJXYnBeWRxKf99L1CMtzIxA3+yRucWvav55pvNjgrVVCWDFZvrlfcZ/i9eX2N+n/TQDgN779Fv/av/oX+fa7b7IJIxyvjqbprOZT4jDAMHQ6DZMSlSIvCMMIRZZQNA3dtJEqYb6DIKC3s4uqW0iAaRgYltC83W6D5XoD25J2lsRohoG/mqOoGmVVUbMMNMuGbSArUREGPooi4xKz8GN0y9zGTKBYdaqypN9tcrDb563X79N0DZAVwjjj6OCYdruHbdlswiW//G1RDPqayxRmEoTvlQCqkqIoXiwsW+SOG2Bou2rCvwphEBFv/iIVE+t7k/9v07qvQcriEqLW/2KXq21peSsEN3GsAJkqEQ9sY5UbM5/n4jOFKympCvF8UQiEsshzTCXn3ft7WIrE67d3t0Heyw+uqgpZkUFWqTXbyJJEOBtCVaDpOoqqkUchs1WCv1ogUSIrW2RSkfGXcyRVRdMNHNsmz1IuTp+iKgpxkopCURyxXCzJkkTgGFVBGCVkaQJIFHlGFkXM1htCfw1FJgREEYHoaj5nkWvouk6RZciaSZZlVMkG07Ipyoq8qsiSBF1V+PabD/idP/PL/Pa/9Cd4eO8OR3v7fOPRe9vvfQMFbzfvJri7WROh0cLMVzfR9Na03/y80cRiGxtUW5MryxJSVSJJQttkqULa+nYByG7h4vJmk0ooS0zDQFVkVFlGpkJXZFRJsApUqRIWqRQCoMuiVCwhsgdhVES5GCqyvCCOE/JSZAmv3r3Nl+cDJAUen11vo4CXD0mCj786I08i/OWMRqOGrGk06jVs28bSZPKiIC9ylusNTqNDvdHGtCyowLQs5KoU8LUskyQxjusRBD5lnqIqCq7rIuk2luMgyTLD8YRmu4WsKISbFaqqcnK8R7fboyhK4jRHUhSWiwVRFHMxmmBZNl6thut6GLqGoipCAbKYLMvQFQmv0aTZaOCYOkWR4Rolf/43v8Of/eBtfvu3vvPiO8tsTaKyNbeyLKPIwjRK0o3xFQGWMOtb3L8oKPOcMs+oyoKyKFAkCU1RMFRVbKAso8rKligi3i5L2xSuEk8osoShKlCWQkBKEQ1nWUZRlkRxTJLmpFlOUZZkaUpZlRRlSZCkKLIosoiIWaSmxfbvVVWhyxJ5XpAXJT/87BQ/Bls3kTXrBbopzJKwSGGU8Hf/0e9iOybRZomqqlydPmN8fUElyQhwXKJer2NoMqvFjGC1ptiWq7N8K9RZiqHraJrKYjFHVmTyPEMxbCzDRFZUbMfDcyw20xFFnqPoBrIssQhSZpMJRV6g6jplnqHpBrqqcOdonzSJSbOc/sk9kiSGqsIydNI4JkkysqIi9DfYUswmiJFljbKE5XSC7bjs7uz8ogDkeUEURaRJQhxH5HHEN189QaMiTRNRLqXizbv7OHK5rWZlZFmGJlVkWYZUlaTbSlsUx6LalabESUKSpBRZRpql2wJL/lLrK/F+JEhzYQ7LUgQ4MgLiVWQJXVGQtgUqRZZRJGnLURB5s6YoKFuhc0xDCLIig6KgbCtxWZ4RpymDpc98tRZ7/zUZqCrIixw/ivkP/94/5o9+/pSiAqdWx7Zt8iKnLEqSJCFNE8ajIVEQIGsKSBBuVli2TavTZefoNr4fIMsKjmWRxgmqpvHZz39GEGzQBD6Fqhtolotu11FUlTCrCMOQLEtRVBnbtlF1iyjYECcRSbjBtAWiODl7jGPbdDsdgjBC0TSyVNRI8rxglUg4NZfb+x2ksqTZ2yPLMuJIYBbcZAEf//xjJAQnT1EUXn9wi48+f0pWlvy3fvOXuX/nkHajztnlNW++9gpng8l2wSryUqB5snyTkL1c1KIQ0TZVhSYLT16WIn4wDJ2iKFEUWfyUJTRNpSxLTEOUXktkDF3bkjsqZFXFMk0UVcW1DSRZptFqURYFjuuiqir1en1bnLEwdINms4GmG0hlAUiUhSCRWIb+AiaWtpCDJFVYpontNdBUlSDOOdptokgyfhBg2g5ZuEGVZcpCZBG1Zptuu4WuKiRFxWo2wa43mQ6u0HQNWdWx3TqqKlHEEZ3+LrKs4AcBmiKR5rlYuyKHsiSJIlRFodloEm9WqLqNqikUecaOZ+L2Tzh99hRFlijDFbmkspjPBMG2LHFcV2RXVHR6u6yWS9ZBREVFuFlR5jl5kRMW6tcoYX/w+0BFkoqq4GIdsdtp0ut1+eOffcrp2QXLVcDbbzzid//4k20K9Yupoa4pFOXXgjzAMHQUJExDlG5Ny8TQVEzTQAJUVRUFG0nC8zws0xISr2pkRYXtOKiahmU7KKpGs1FHM0yBBEoKtu3g2A6249JotlA1DdvxMCxH+GXAsm1kWaHVanPv9gmNWp279+6jGxab9Ur4pRvBRcI0NDo7B2iaCpLM4/MxR70ajmUiA7XODqqmibgCic1yRhgGJEWJKksYlkUc+jQtg+UmoMgz0ihAMyxa/T3KIiUKfLq2gawIECnwA/aObgnWhaxgmCZB4OM02qwWUxRFuDG92cdfTCmKnN7uPo5lMp3NWK431BsN8iQWWURZkKQZZV5gWMLVmU6DNE2o12sgSazj6qUA/OAHf4gky2iqSpqkZEVBkGQs/QhJ0ahkg7SE55dD0jShKksURKSuKCqOY4EkY+g6DVcEN7KiYpsGmmGi6ya6YSIpKvVmkwqZmm1jWDamaWFaLs16Hd20aDTbVGVBu9VGkmUc20HXNBRVpdnqkKQZe/t7FCXousHOzi5JmqJstVJRNWzHoShLXMdCUTVc10XVdPKywjANiiInTmL8zerF5gMokoRpGNw5PKCUZGzbot90uHv3Frpts1wu2Tu5x3R0TVWWuPUaRQnNRp31ek2eF5iaQhzHZBXohoYsSViuR1VVDC4vSeKYoijIZVWUhKmoJAWkiqKsWC4WSFWJbuhomkEcRyhU5EVJlUXkZUWRCRe09gP6BycoUkWn1Ua1HBRVRlJUZEmk7bZXQ5clJEWgl3a9g79a4mfSSwH46U9+Inyn41D3HMo8I0pSiiLfEiMysizd8gOAqsTzPOq1Grph0O/vbKlaCigajutRbzRRNQNVVbFsoZGmaaGWJaphcvfRG8IXSTKmZSOrCo6pEicZ7d7OC5Co1eshlSWSor2gkadJiqZrOK6DXWuSJjGyJLHbrqHoBnmW4bkupmFsy8Yltm2hKgpRFGHZNpcXF6Iy+KKIJVyBoWs0On0M0+Sdb7zGK8cd4jii0WhjOzbnz5++CJqDjY9m6AQbkZ8bts1m7WOYJmVREAQBXr1JmiTIikywXrHZrGk365i2I9LTim1FT5BmpTJHN01mozFZEglhyQss2wIET9J0ayIlLwtGg2s6zRrD4WCLEyis5gvSOMJzbaIooCgqVos5Tq2Bggik18nXLMAXX3xJWVYoFdTqdSqENos0T6R0uqqx22vTaLZptdo4to1mmOwf3SbPMvEew6DX36XeaFGVBa7jUG+2CTYiR1VVFcN2cGpNomCDtPXreQGapiFJKqaukRWloHpJMlJVEcUph3sdKklhf2+XsiypOxa65RCsl3R3DyizFLtWx63VkBSVxXzO7QePWM6mSJRYloWuafT6PbIk4erqEm7QjJeQBrqmUUkK/73f/g08UybbrLC8GrV2l9VihmVZdHb2mY6HeO0uqiILPoDpQFFss5gKRdOpuwZplhOHPqpU0ep08BptTKdOlqUUpcBVZEkSKd96geV6BMsFtXYHTdPo7h+J5hskRuMptZq7RWkhTRJ6e0fImomkyFCUqKqKogi3bCYhaJoI0mWZJBQuyTNUJkHxEgiq1Zu0W23q7Q5hlGAYFru7e9y6dZtXX33ErZPb3Lv/ANurY1kWvW4Xy/FoNposphPKskTXFFqtFpvNmoOeR1lW6JaNqsD9h/fQFIWHDx+g6zqWKljFuumgKQq9ukWj0SCOY5KsQFNV6p6HIku0u33anRZLP8V1PSRFx3E9NlFKWRTkeUa4nGJbFlUcIJUlapHS8ByC1Yx7D19l7+AIU9dJk4T5dIbredtFEgt1E7TeyML/4F/9c1SqSpLltI7usH/nIc+//AxZkomjkNVsjKGbmJoiavBByGYt6gSSIip7RZYSJSVkKV6tiWw28IMYXTNI4pA8z6lpAgkMw1CAWrKG7weUyORJgm3bDM5PmU+naLpJp91AVjSR9pYi65pPBqiqilSWW0uqYro1LNcj1C0KSWW59tk7vEWW5ywXC2Sv/eL7ijQwTV+EQu1ul/7ODlEUcnz7AXle4tXqROsFGhWWbVNu8/m8qDBNE9OyqJCI4gRV1TgbLLFsmyIVeeloOEHRdC4vLimLkryUqLW7GJaJpGgkpUwUhmia4OHLVMT+HNurMby+IA4jLNPkejDk4vw5RZFzfHyM69UwDZMsy8UiKhpSkZJkOZ5bY7/b4fL0KVUa4tQa1Bt1bNuiyFMBTCIKCtUL+FjAxlEU4noN8iwlW804//znGIZOVeTUHAuKgm6/i1tvoGZrWlbFbr9LFMUomioQRllB3ga5WZ5hqRXnF+eUwGa5wNA1zgZjyiLGNA263R66rnB8+w73XnlVVAYVFUXTMAyD3aNbSJLMYjJE1VTqdY9XHr2GbRp49YZAA4GaVuGvFsJtpzlxFHJ0sMvzJ58DFa1Gnavnj39RAOIowDQMms0WEhJFWVCvN1kvpximQQk0ujvUOjtURYlh2dRqHke3b+E4JkkcU695OLaFaWhIVUGaZhSVMG2O6+J6HqqqivxWERQqRVEB4Z9ty8BzPYHqSRKVpOKaOu12F8M0cGs1GjWX3X6Pew8fslmvyJJI1Oo1VRSCkFmFKa12B7fm8vjpU5qezbvHLb51v8tf++3f5F/+rW/x539NQKEvFf9FQZuqEm7g+uICt97E7u6SFCWt3h55WZIhY7o1Vsslk6tzcs3jepnhB9HWj5eUWYqhq8RhSClr6JpOUlTcu/cAVcpptdt4jRaWoZOkFbKqs5qPkRSFweUlV+dnaIbO86++pMoS6o0mTz//uciuZJnQ9xlcXjG9usB2bP7pP/mvOH3+lKvz52TOHpphYrs1JFlYmCTLUbZmbhOIEvbNQ/nggw8+nE4mFNtSbZok2KaBbuikaUanv4vXaOHVhUYAxFFIEIbUPZfG3l2KeEOWl8iKjOO4tGsWWVGiaip3+i1KzSLYrNBNW2xWURAFIYYmU2QZWZZjuy6O46DLlbh2s8N8uWDPMzm6e4/B9YBet8lyuWYyHmMaOlEUUq/Xqbs2niHx8P5tvvn6bQ46NrtNh1cfnnD7qItRq1FkGZIkIesW/95/9PcJA18I2hb6lpCQpApNU8mKklcf3iGJIqajIVVVsXdwxHw2Rd22qemWhSQp1JptikL0K6i6TpEXRFFIhUStViMKNqRxiKVpZFnKerEk8H3WywXL9Zpmu00Wx1SSDMgEmw226+CvVrR6fahA01UMXcdwRMeR6dSIo5B6d5fR1RW3779KVRbUmy2WwwsUVSVLYmGJJJmqKHHrrS1JVKe3e8BwvnkZBD57fsb9u3cZDge4notbqxGGAY5bYz4ekiYxtiYzny8wDB3dtLDcOov5AscU3DpN0wiDDZZt4wcRxbZ0m1Yy4XrBNthFVQV61+60ME0bx6txcvc+8+mENImRZIV6o44mV+iaQaUb5JUMZY6/8anVPHRFpe0Z/Hf+3K/zjbffoGVL9FsevbZHHIVouk6j3eX4+BZXZ6d4rsd+p8V0JYor/+IPfkiCQSHpFKjbVFdD1gxkzWA1n/Lem48I/Q1eoymEPoxo9/pkUUgYhFRVhWnqrGZzfH+DhEy1ZTFL204np94gCgOKIqeQBA7S3j0ky1Ia3T66qjAdjai3O8iSRBpHuLUaq+WC3Vv30U2bzWpOEon8PY4j4igijSM0TSfYrHDrDcZXF9RcmyxJsNwaSlnQNBSCJCWbDMD2yNOYNImhgmCzYpPJLwXg6uqa6+tr9g/2BQdOM0QfQJnjOAJZuvfoTRbzGWEQousqwWpBq+ZRJBGqprPxI6hSWs0mWV5g6rqoG+QFtbqHYZg0XBsUhXany3gwQNFUkjjm4vQZe7t7SEWCaxooskS27T/Y7XdJ1hPee3TMu6/s8+qdHV57cMjBbp/np6dQ5OSFaDhVZZl6q8PRnQfMJ0M26xVOvUGRZqziCEqYz+e8+egen336KXkaQpFBmSNVOXKZYSgl/6v/xd+krCpUTcPxXExNJUkSksAnL0QXkaJpnD1/RrvVIC8RiOYW/jZtUaFTtjS6VrvJ7v4+V+cXLKYTNF0nTyLSwEfXdLx6g2C54OTh66i6TrRZk0Y+mqazmI4F31BWGE+nmIaBW6ujahqaqrJeLji4dYeWvKIwW6RJTCnLrKKEoixQNZXNakn/4IQ4jDBtC02VWUTlSwH46suvePTqQ0aj4bZNSiLPMtIkAQT5IM8SKHLanQ66qggzkxds/IAKsEyT3u4+iqphWRZB6KPKCpqhY9sOsiyT5RnNdp/AX1MWomp258ErPHrjbYZXF6iajmvKfPuNW9y7c8xe2+Y3fvWX6LXr+Ks1KAZRmHB8/1VReNIFnGvbJo16g8l4iO8HTMdDkUHs7rOez5AVBV1VKKqKbs3h7/6f/28MFyGKtC1yVQKKVmRZEDGTgN3dPmkYEvo+br0lijIIaLvV8IiTFK9Wp6rAsGyKTHQZ2VWApBqEQUCa57i2Tb3V54tPP8ZxXYo8w63VMUyDLMuIohjXdbm+PKNMI6bjAZquo2kaliG6j4qyxHRc0sCnSHzyJMK2bGbTyZaTWYBWo2OpGJZFEMcYlOimTb3VIYxiNE1HkSp8f0OavYSCZQDTMhhNprQ6O0iSgqHpaKrwO7qm02w2KLIcSVKYjIakaSYweVlmt9/D1HVMXWUxGROsV8ynU3RNoygLsjiiZcpsVitM22M+HQn+vVLy7oN93r3XxQlO+ZW3b/Mb336D916/R//WA9IowLJtnj9+CpVMUeTU2132jm9x+fwZ0+kMqDi6c5fh9YDpZEx3b5/dg0MM06Db77MeX0Oes1oscJt9pDInQ6LRbGKrN+wjaUsoFRmApki8+dpDDFVhv9+homJ4ec50OIQKsjhl40fMxiPKsiKOYyhywiCgrCoCbEoJbt89oddpM1/Mt+BRhbEVWKqc6+sh52cXOI7DejXHazQZDAY0uzskaY5qOJw/PyXLcu7u96k3u5iWDYqJbDigmSLu2Ob5l9fXjMKM2XojLIxqsPYDwjSn0e4gKzJhFGBZ9gsa3YsgcDS4RlE0yiLD8xwWiwWHR4dIgCaVqFVBWpQCrXMcTEMnCCMOb90hWM2RFIX1aoXjOJRlSf/gCFWRicMQyzJBUWk167z98JDvfPNNHtzZ56DjYdkmsqZT7+1BkWCrMlIRk5cSmmkRrlc4noe/XnPr8JDrwTW254ohEVXFbDIhCwOaNZdiPQHdIc9T8iSmqgquLy64++gbdPcOSNOI2XTO3/mP/yHn4zVllmzb0ESxii0eIMsK8zBjf38PWdWwTQPHMgnjGFVRkRWZNMvQDQukioM7D5lcX7xAO91aA9N0SLOK58+e4gchjXqNComiqojDiKOTWyiqwPyTRGRFzU4fWVUFkUNTaTSbW/JpjiHHLFdLXNcl3absnmVSFAW9Voua52K4debjIYZhEAcBTq2BoaoiU5Iq/DAS1koVvRH+14tBqb8kjBLWqyXddpskzRgNR2RpiqErpJVCFIVQivq9Y5qUlIyHA2qNJqqqcHS4h2GaVHlKsJqz0zT4ze+9y529Jg1T4dbRjmAEb/sFx6MRjusxHY25ujij0WiR5DmlatJ0bMajAa3uDovZjLuvPiKvCsG6LQuksmC1XIgxMYBh6YzGM/wgRJIVmq5NXsnYtTqzyYjPPvsUXYZ6vc7//fd/SoVELmnkqOSoVLIGio6kGiimg2vbPD294P1vvMJ4NELSdDq9PpIEq9WCdqeD12jR6e/y2c9+hO3WBF0O6J/cJ/R9rk6f0vY8dnf3sJttDFVGlgXeHycR6/mcPVfHa3WQDUusTZGT5ymGZROtVxRViel6zFchimGLAk+RIQGzxQLdtGkoJeNNQFWkrJYrojBCkmUmg6ttr4JEkiRkWY5pWfiBj6Qov1gNHI3HrJYrHNcliGKiMBBQ8DbvvGn7VTUVy7IpqpKqKDjc79N0DZQ85C/82T/Ja6/eY7ft8PDeCbYmE8ex4LdbNpuVz50HD9msFiymE9qtFrrtYpkGumFycrSHW28yOD9nNB4zm89xDZXj2/c5e/6EemeHWw/eYD2f8PjxEw6PT5AlwcVbLtbcuvcKkgRZllNrdUjihLzIqNVqfOPWEWEY8OVXX/KjT5+DLMrOIgXcNoVs+fiKLGMaGsvFgrdfvU1eCKZUHIdIZUWRZbil4DPkyKgyxHGEaZosF3NqasF4OEBRJFTLQjFM0TKWZqRxSrvbYzK4xnJcrqczZtM5pqGynM9wHEfw+np9FFUljwM2iwWm7aDrGmdnQxqtOlIFXq3O3tEJcZWRJBlJHGGaFq+8/jrr1Ypao4lbb+J4HovphN2DA5RKdES1ertMluFLAWi2e7j1Js12m+VkQrPZwLRM+r0eZZFxtNemYcn80tuPuL3X5LhfZ7/r8eDOESeHO/R7Xa7OTglWS54/e8yrD26xXPmkcczd194gSxLkqmA5GW+rcQUlkMQxnZ19ZqMrppMpcRwzGk/49d/4TRzP47NPP6N/covJ9RVVkXN59pzlbEq71cbcVhJPnzzm7skx19fXtHo7qJqKbrlUVcFmJbCHs+tLkjzHDxMeP31GnvgUWUpVCThY3nIUqUrKJCCPfXRF5pe/9TZ5npOmEW3H5nwwoLOzQ67obPwNURgQhQGWZW0rkSrztc/hnXsUk6fUyyl+YRBGsShgyTLT6QhNVdF0nc7OvoivypLlfMZiOsF1PS7Oz9FNk0bvgLIUHcqbxRzH0jFMkzzL6Ozs4a/XTAbX6IbBzt4RRZEzGgwE3UyqWI0GqIaBaZlEQcBsOsUwdIEoBtlLAfCUFFeO6NkVr9474PZRH62IePXeId/85rtE8xGdpihg+Ks1rV6fi9NnaJrGeDIjDGNW6xVerUYSJyR5SWfngM7ODsPnj+kd3+b69BmWoYOskKcC/PEaTVbzKbZbQ9dUzs8vqNkGURTT6HSpqT6L5YbLwZAkilFlGcPQkGWJJPSJgoB6zUU1HVRyVssZq7mAWT2vRhpFZHFAWVZISPy9f/T/IE0TQS8rcoosocpTKBKUKkOVClRFWANNU/nN3/oTaJqoPq42PrKskESR4EiWosffdlzyLCXw19iOi2lZREFAYXgU7h6yomBZNmmWsrOzi1NrEAUhSRJTa3dwbJfz508xLYPdXpdmu4usadhencV0yHq9IU9Tev0eSDKNWo0gDAmDDbKi4rg1KknERMlmyXq9FI0ykoxuOfjrJZahkeeCUmc5NmmSsElFOVgG2G17nNy+h+l4bNYB+4e36HU7HB6ecPn4c978xptsNmvu3j7m/V/7Laqq4uTOfRRJ4uDwgJ6rc//ePRq1GkfHR1iWQ5bG2F6d1XrDs88+obt3QJRkpHFEe2+fPE8J/Q3+ekMcBiiazt279yglmcVixnoxZRFpjCZLbh2f0NvdodPvo5sOtU6fChnLc/HjjMVsgubWOLp9n539A2aTKRenz+gf38FyXJJtnSEuJNZ+RJoJjmCxrTqWlai3F9t/ZVmyDhOizZwwDNEMk3qzxa17D9g7OBJsHAqCcIPn1URNYFvUCf0AqczRJCiSGMNycRotVFVjNLjCsB1kTcUwDJJgw3I5xXUcXK9GnCT8+Ec/YDWfs5pNiP013/zVP0W91SVMM8oyY+WvWc3nZMEGTZFpeTp/9Mc/EFlTvYVUIVrnZV602vtBhGqYqKpKHCcC5/l6FhAtRkhVgW7ZlFRcPH+GaTssZoL6tVivabW7hGnO9eUZTq3OvlMS55AVJZWmUWQJ14MhcZQiSxVZGmPaLrZXw7QdlpMxzV4P03GJI9FYsVmtsGyTu0f7zFcb6u02J3cfspyN2Wx8JElib7cPkkSZFxRpRJwkZHGEXauRRSFJnJAmCZ88OaVT96iqkje+9R2W4wHj6wv8zZru3j4/O1uRpSleo81wMhUbXYkJJ4LxLqDwrKjIKpm//tf+Io6h0j+6DVuET9NU7EaPaD2n3emhSDK255FlKVEQiVKsqmK7dZbzBaZl4K/WRP6GJImJsxxVUdEsi1Z3h2izxN/4tHb2SNOUvCixbQdJktksZ2RZzPz6gvtvvc/ZV59hOS55ltFotVAMU0wmUS0O+23m0zHL1Yr+7h6abrBZrdE0BV3VoCoxvCbBekG92cJQYLYtBysffPDBh3qxIY1j4s0K1/Po9buMrgfs3bnHZrXAX2/Yv3WXqipQVZX1fMHVeCmmXUkV5DmKbqJqGpJU0ep0cRst6s0Op19+imNZrFcLws2GKIpwvBpRGLJ7cpfNcspyE4NUIkvw+LOfo2kaiqJw794DxsNregfHIElsNmvKPOfg5DbDy3N2D0+QZRnLMhnM5qw3PrqisFlOuTo7o9aoI0ky69WSq+sRQZSgqio7vT57u3vs9ndot9oYus7e3j6NVovdvX32+l3+4m98G82tc/HsMcfHJwyvrwBIwzVZlgvBr8Sgp8D3kSUxAseyHbI8xXJdVN0UkHpNuCNd16EsWE3HWwq9oM0Fmw21RpPYX6MoKvVWh4bnQQVRmkO8YbXeICsybr3JZDwm2vi49TrL8YWYR5DGVBVEaUGc5DTrLiWgaDqtZhelzGnvHVJIKoG/YZPwtSDQ0ejuHjCbzvBaTSRJZb2cE67XNPs7oh8wz1gtFiLlyRIsy0SmJI1C/DBkMV8yHI549dEjNqs1n3/6EbG/odntsV6vqDdb6LouBjzJEmkUkuQFtqaxc7jPejGj3mihaQbr9Zrbr77JeHjJ7eNjlus1SRRAJUily+UcGTH1qqoqYn9N11FpuSZvfPvXmG0RTUmSaHS6jM9PxQCFTDRvaqqYd1gUGTXPw7YMZCpc1+Fot8ef/M6bSKpKEYe85lRcbwIxK0kWqKPpeIJAq2pkWYIuS3TbbRRZxm12cGyDcLNhOV8I0klVoekGVVli2g55UQhuwkyQOfM8R5Whv39MkmWMh0OyosCpN6iqks16RaPVIc8yHNumWa8JCp5hEMUJiqqR5AWapuNYFjXHwI8SkCQ0XaOgZOP7zMYDkvUcVdNZfz0GOHn4Bn4Q0D84oGbopEmE7brohkYeRyRRSHfvSBQqZiOyvKR/dJckK6nv7FPJGvVmk4f372NoKrIERS54bWmwodlsEm7W+Js1kiRKq+1uH7mIKSWJzu4JqqpxfXHO8OqSdqvJajoAYLzyieMIx3UxTJNb9+5T5aIBxd9siAMfXVfRnQa17gFffvRDTMdj9+iEWw9eYTYa0tnd52wtE4YxtmHQqLko2ybRwF9Tdx3euHvMX//Lv8WvfvNVHNclz3PqnsOTVOF6MiOMYyQq4jjBknNUVdv2EshopklUwnQ2ZzYaMJ8vGA8HSJKoJ8RhtGVNSVRZgqpIGLqO6zgo2w6oZ0+e8OUnHxGul+wfHOK4HnatyZ09D6/ZQjNN0RUlK6Iop+tcPHtCo9nGcDwM3UDRdNI0wY9i+nuHNNtdqizDVhV0TSHY+Bi2S/U1AoxwAbkwrVVVMp/PsetNLNuh3dshCUNkVd1Wrsa0dw4JlgtW8xG9vX2mwxFOzUPTNOI0p6gKZrMZu3sHlEXOYjaj0emznoxRJPA8j8V0hHbTHKHA+elT6jWPNE3RLQvLsvFXC9rdPl6rx+NPforj1TFdl+vzMxRdh6qi1d1hNhkj6yaqbsCW3h36G8o8Jc9SFEVhvvL57KtzXNfFsixUVcaqdzBVMWDJUSVWGbz2xmvMJyNWizlFnhPnJbKqoqo6w9GA3ra24EcZceiTbcmZWZpvOZMliqKSpind3T2kdMOdgzYxOmksqNnZlrmTRhH9/QPk7cjcw5M7rOZT0XWF6MZqdXtcXI4oStis1kSBjypLOPUWaRqxu7NPikIa+uzefgW5ENU+VVWI/PV2HQqMWpM0jkjTlGa3x9npORjeSwswHo2I4xin1sS0bIbnp1yfPWcxGVFtZ/dKhsP9195gNRlSpBHHnRaDywuBNEUxwWYjaF1Rgm2aeK0uq8WCVn+XOPBxGw2OX3mTNCs5PDrGX61Jooje3gGGKjObLVFVjd29I+IgIIkTBpfnxIsh/Z0dqCoRSLZa2IbB3YePyLME19KQypxgs2Y6GrNczEnikDRNWS6W5EXBzt4OumHS39tnd38fJFjPBmx8n6yCZVLwYL9GEoc0Wh129o/YPzoRwSEyb77/PVzLZjWf4wchalXQrNepKolub5davU4chjiei+M6UJVoqs7+q++T1e4KVZO2swuLHFVVRZk8isjKCqmqGF6f0+x0yYqS9VKQOk+/+pwwCNjZP8K2TcGoVjSyNMK2PSbjEWW8wXI91tMBQRByPbjGMG0UWcZ2XFAV8rwki2N2d/dI44jX3/nmL1qAXt1iOh6hqQqm7aCqKkVZkiYxVZnhuR6nTx6TJSHt7g5lVbKOYm4/fJ1bD19nOR3hOjZWmRBmBW69wfDiHEU3WG8CKiqcep2r02c4tTppUbKcTZBklUrVuLy4oixK6vU6iqqwXMw5uvcqob+ms3dIZ2ePwF+jqjpR4NPr7zAZXBIFPk3HxI9Tao0GiiyxXq/o7uzhNbvopk2rv8ff+0/+L7g1j6uLcwGVKhr+2ieNInZ3d/nLf+E3kSioNdpEYUASBiwXc5rtJmmac/n8MV6tQZbEgkksKURxgqZpVDfDs2UFw7bI85zDgz2SrGA8uIRwgmWY1Dt9sjTDcRwm1+cc7O8TBAF5mpIXor3OdBy8WouyEDhFnmd0W0026xWbxRzbdSmynCxNWC5myKpGmsQvNL4sK5rtNlEY4tTbFFmCapiEy5mgqEmCzSxTMVknL4PAhinMjmEYjLcdLWVe0Gi1mI0nJEkqGLqSzHo5wyVD9xp8/JMfMrx4znq5IBme0Ty+x2Kx4nI0Zbfb4uHtA8bDAc1GgzxJWcxntLp9siTCdWsUWUy93UOqKtx6XaRiFeiGSZ5FpFHIZjnj+dPHXFxcoMgyniERF2Kw9SdfPuZHnz3ljdce8uzJE1yvjmWYzIbXLOcz3nz/e1w9+Rw/F9XI3f1DNqsFRZ6TZTHHt++yU5PRpIxOq0VRblu/4ljw98OQAgnLtrBdD9O0t7CxRKvXw3I8JsNLdFUSMYpuMry6ZDi4Zj6b8eqb32AxW5Bngsbe6u1w/vwZlu3iaQpOq0eSxqyXSzyvTpakmKZGludoqgZFQef4IZenz+i0WqzXSxRZIk8T6u0u+7fuM7m+ENmIJDGfTpmOh9Q8h6oqiIIATQa78vGzisVswXw2ETMJK+OlAFhVhKcpVJRi0IGmouoGs/EY23VYLFfcvv+APE9xbAfNa9Do7ZPGIVEY0u3t4O0cMBqOObl/l7qlsppOyVQL1/UEYVOWOTy5S17kjAdXAgiJE5I4wLBt4iRGN2ya3T7L2RjL0Hn+5AlJluI2mii6xnK5wK212SznKJqKqcrcPjnEX69otls4Xg2nXqfZ6bOcTlBVhf/yv/kD5vMlQRgSbNaC/JUFiOFgEm89OKbR7rJZLWm0Orj1OoZlolAR5zm7RydMzx9z9Mq7OI5Nrd5gMZvSarf56Md/zP7+IVmeU2QZn370UxyvRlEU1BoNRheXSLLEdDrBNEym548pilLUF2wXRbdYzWdC0YZXaKZDWRTUWz3yPEGuMqqyRJIlKllm5/AWuiZG5QbrJZPBBW9959cIAzHFXJYlOv0dZMByHPIsZbXaMFkEYiYhbMkkBn6uvBSAtquRySpFWdHr9RkNBrR7fZx6nc1qje26olcvz9k/vsV6veTo9gMWkxGWZVMBw8srNE2n2WlxePuuoIXlOWGwRtcNoGQ+nbB/cg+31iAIN/T3j9msl5w+/Yp6vcFiNqPZ7TGfDPBXax698pB2s8l0OmM4mSIB3/n1P4ll29hejSyJCDYbNFUjDGP2j29RVhVJHKIoMtPRkC/Phpi2zf0Hr9JqNbh/0OX5YEKnv887j24xnYwIg4Ddo1ucnz5DURRySWNwcUYURfT3DpFUnevzp8zHQwGFN+oMr67xanVCf4Nh2lhek71WnUwSrWxZFNHd6W8HSMhiRKykYjkuaRKxWS3ZzKfsHB4xnwzRDYvlbIrreeTxmvV0hFlrb79PRJ7lLJYzNMPGcz0Wy7kg1UoSjivoYrquom+7kbMkIc1SMdnEsrnz6G3aOweMLs/p9PrM/JTv30wL14MBjXYbRdGI/CVpHCErqig8lAVVJYncE5nlcs5sMkFRFLo7+7iNFoqqYqiy0PQyZ3R9jaNUWJ6YhFFQ0ezuoOmCkDi4PCXarImzHGTR1WubBvFmTaXqPHjjHdbjS54/e0aeCmpTb3cfzTBxHI/pSMQMnf6O6IYtMyrNZDGfc3j3IYvRFbPBgFmq8tlXz1BUlc1GNKJIVBz02yyDhIf7deo1D7deYzWb0j+6Rbhek8QRjuMSJckL5nC71+fs2VMcx6Zea2B4LmkUkScRiqoRBhFJEqHpGqbtomuik2m9XNPZ3cXxGoSrGavZlKICWYY8yzGMm/GxNvFqTpiKriaQmI4HHN99QAkCTYwjGo0GURyxXq7wPI/RaEJ/p09R5BiWBUiomo5hWPyX/+S/5r3XHiBLElWZs1mt2L91i4vTU2icvDwxZLdpUJU5WZoR+Btee+VV5rMZUlmyd3BAmmbM53OO7z5g9+gOeZYJvl2tRm/vgKIoGF2dkUQRo9EE27a5/cZ7rIMNh/dfYzWfkGcpTq3JbHhJt+aRyBrr+Zya51GveSCJTllFUZiPrjm4/4giS6g1Wwyur+nvHbBZLqiqklv3HrJZzcmygvlkxHA0RNV0ZuMhnmMR+htUGf7wp58BEr1dgd+//e67WI7Dau3z/qMjur0er731Jl6jTej7GJbHZHiNBLi2QRAGNNo9qjKnv3dAsF5QZCmyIjEfXLPXaWK3dxmen9Joehyc3KXWbHH6+CtuPXidPM9IkpCqKHG8GpUks17O2Ts4pL93QHfvAEURo+2X8wkVEEcR9WaDKArp7e7z9MsvcWoeum4QbNa4jQ5QYTsuiixTpGI+gCLLrOZzZFkgn5G/5o1HrxD4GzRN9GpaUkHlz2nuHLJOv0YKNUmQZI0oDGh2uqxWS2RNx09ygjDCMExWyzn1eoPrJ58T+iv2jm9BUbB7cMDZky8INxtqjQa6IfhwZRZRFSWzwaXQwNUKy7GpypLxZMpiMqLT38F0PGazKaEfYrsuaZyQJTGT60tG15fUW00USWL/6Bb+esXB7QfMRpdIZcHV+Rknd+/g1po4XpNOu8MXn33C5eUVzf4OXz27Bir8zRJFUVivN6iazkHb4f6dEwxDZToeMbg852i/z5PHX0FV0up0UTSDdHuoxGwyQabCazQoMkG07O/v8/z0jNHgmpO7D7l97wGmrnH+/DmGZZHmKdPzZ1RpyBvv/yqf/+xHxMEa3RCdQR/9+IfoFKRRwGq1RlVUQdjUdcLAp9nuECcp+8fHrGZTLNsWRS1DZbOc4a/X5HmOBHT3j0jiCEVR6ezubwdK6IRBIKaWzWbYroNRb5PLgiTiZyIGkAHuv/VLLJdzptMpX37+KYpusVyu6PY61DwHy3WQZQWlSLFsB1nWiKIYWVW5vjin02yiajqKbmHoKnuHByRZhqIJCvlsOmNn/4DR1TnT8YBiC43KksRiMsQyTXGuQFliWgaaW+Pgzn32Dk9I02zbbStRFDlXTz7l6vQ5libxjV/6Lla9S6ffx2l1CeOQWq3B4dERi7DCdmwxrLmqcOstVss5w+srTm4d8PTZc4aDIXcevEZv94ir0RxJUWm1OzTbbfzNind/5U/geB6WabLZBDz78gtefffb3Hn0FtPpnAqJt956g8V8xE//+I/46Mc/orOzj2Ho2IaO22hiOjV+8v3/ClWCo4evE4chcRTx1nvvc3U9YBWI6WFxHFNlObZlomo6aZYRxyGz0TW266FrGqZtbUfAdknDkCLLaHS7TAcXGKaJpqucPf5im80U9PePKbKUg/0DOvUmk8EQSdU4fvD6L+IAh3s9RtfnbNZrjo4OSaIY09TRVAXHa7BazMmTmMV8zmK5wDAtnHqN2w9fQ5JVWge3WUyuSaKAZm+P5XRMp9MlzVJ8P8CyTTRF5PderYFExfG9hy+aRuMkot3f5dmXn9NstfFXC2ajIZqmsJhNufPaW8yHF7R7OywmIy4GY77/Rx/RdQ0ocwbnZ6hSwd1XX6fKE2bTCV+cDViu1uy3PBrNJlEYsFqt+I33X8FyPTzHpt3pMRpeY1kmQRgRBBFZURJHEV69Tt0y0OWS4XCIqqq0uj2efvYRWRRuK38aw+GIPM948I1vIskKp0++wDBNLMum3ukTJwma5YEsMb6+Jg18GvU6UbBhd/8AVRGsprKEhqVQsy36B4dcXV3Tbneoipwky/BXS2Hyi1xkSa6LU2swGVxTIeHWG8RRSFnmxGFEo91hMR1Ta7YwbYfzs+doskxZ5vzuP/td6t39ly6gWF3RbnfQdZUiz7n3+tvUGh3CYM1qOSfPEiRkiu2xbc12B83xKEuJ0fkTFMBr9xldXqBIJe3dI+IwxPaaFLkYztho1rEsG83QObn7kMvnjymzhDgQXTLXF4IwUgGSrKKqCp2dAzGJSxanl2SbBUEYsdPvcLC3g6IomG6dg5Pb5FnK1dkpUZLyhx89oSyhKCErFVoNl6vrIc26iyWX6LrOZDii3dtltZhQFCWhv+Ho7gMUCRRFZTmbcn19QZqLAk5v/4D+wTHN/j5FkRH4PlUFjufR6vQZXp7S3T1kePYMqaqQNYXFdELgi6Cy3e3Q7HQZXl0gVRWGZXF1eYakiOEZRVUimy5hFBEEIWVRMZ8M2b91n81ywdG9h0T+BsdzsT2P43uPhDDMZ2iaymo+RTcM2p0eSRySpQn1dp/h5TlfPXnCnTt3UA2D7v4hrqkRfR0HqBsgSRKqqrNazEj8DZ5tMp1OSeKYo3uvsXN4RBiFeK7Hrd0+laJx+uUnODUBgw4vznA9l/V6hb9ZEG5Crs+e4tY88rwQuDQCp8+SFGkzpdFqg2YS+BuO7z4kjmImcxHo2a5LHAa4nsfo4hykSjCTFYUoSKAqSRLRIexvREDqr5YspnPWuUyR5Zimia5IKEVOXsn81ve+wYNXH3HrwSPm0xGbTYBlmkzHYzRVZT4eIQFOs02wmmE7HpphUpUVwWrOxdPPWc7GLKdT9o5us1qKgY9J5KPkCT//2Y+4dfeumOUThETLKZojZiXYXh3DNOnu7FBu09dasyXqJKsFju1s28YzwiCg1e1R5DkXz59i2jZnj7/ENE3W8xlJkhH7a5598TGNRgvHrWHaFo1mi9l0ys7RCcFmA0WK7boc7e+xWq9p93a5Pj+lvXPAfPM1JNCQMk63Kdf919+losRya+R5ymqxgDIlDEJqrRbz8ZCuo3B6cU2wXlFkKa4hkyFh2S5urcl4NOb47gNeeft9MdEqXBOGAWVZ0Ov3ePb4KxoHx1xdD4ijkO7ODnEYEEchdx48RFYkVFXBa3SYDK9otLrouk6SxKzWIZP5HMcy6R+dkKUCtQvXCwbDMX/06XOqSmK1WmLpOr2GQxClHB/tcff+Pa4vTvn4Jz/E9TzGgyt6+wfouiEIlIaOJFWUUYAkq6wXM3b2D1kvZvSP7qHrOrpuMhyJbONWeUZg9hldXfDgjXdI05ggjJEUlVt37rF3+x71Vpf5aEC0nlOWFZpp47V6Atiaz9isluiq6BuUZIk4DDFtm8AP6O7sipY736csBYfStC3SKGA+m3FwcodSlnEcG0UTpXZN1zh/+hWmaaJoOoZcMZuvWC1XDK8vaDRaDC7OKI3aSwHIFkOanQ61mstyNiGOApx6hySJUFSVu6++yWI24dOPfkq9VmeZVOi2GIjw3nc/YDAcYnt1mt0d8jxnd/+Q67OnJEnIxz/5IT/7+DP2+l3SOMap1VB1A3+9wdANDm/fw19vaLaaGJbNfDqmKguacszJ7VvUm10+++in3Hv9bfI0o+45NOo1dNPA0HVURcFxTNI05/c+eoJbb3Jycpv1ak0QBiw2AYbjsFotSDYzZElm5+AQWdY5vnNfEEHzBEWW8Jcz0jhGAsLNGt0UY92lImX3ziOuTr8iDiPuvPo6s8mIUSIIrmEYslmvkCVZTEKxHSJ/xcHBIX/8+99HVlQOj0/w1z7Dy3PSJCTZEkTmozGtdgvTMNBs0VfRaHfFEIrLZyiqglqmXA8HfOvtt3h6ekar3dlmExG6prF7fJfZ4ALDcvDqDSzbochzvPYuq8WULE1RNdGqniYx9WaTsNBeCsBuxyOJY+I4Jgx89k7ukMQhk+srirJAc+oMTp+ys7vPajEjz3IUGeIoZjkb469WKFWOrEh8+elHYmrmeoltO2hFTJoVnF+OODw62E7NzHA9F9P2CFdTpEoMqPI3G4LNCkVRufvKQ4zmHk6tiaHK2I5FHIWEYYS/WZMkKXsHR0xGI9I0YzyecfzgVS7OLkiSGEkS4+9anY5A0uINtm2JmfxlSZZGXDz/isVkTBxH1Fsd4iSjrEA3DO7cvUuwnHPv9jF1W0dNV8w3CTv7ByynY2qNJs1Wm+dPvkLXNe7cu4tpiUMmszQjCAIm0zG9vUOiYMPg4gLTdZlPJ+iGgdtoCe5Dv0dFhWLbXJ89p9HpUuQ5n/30j7j3+jtMxkPSTEwIybcj7CXEOU15JjKkp198gue6PH/ypThaV1VxGx1UucKqNXC8mugWlmQ2qyXNVpPNNg0UnMDpFV69TlmVeI22mIaZ5njNJlJVMjo/xTANbNOirEp0QxMsnP0Dws2KvZPbbDY+qi6md2SpmN6ZBmskRefOvfscHO4CMnffeBe33iTyN1ydP6PealMUBZouxpxoho1UVZxfDfni45+xmE1gfMrTyxmKUuE4nphl0Okznwxotdv46w1X4yXPLwYkSUK9XsfSVTbrNaau8623XuW3futPUCQRhqpTSRWSrHJ5cQZVyTvf/Q3moytcz3vRWDGbL/Bj0Vfw1ekV15MlQbCh0W7T6u9RZCnL5Zwyy+kfnvDFp59jWBbDyyuyJOHuozeJ44j5ZEK90xPTVPOCIPCRK4n5ZMDd+w8YXV7h+z6KBAf7e1yfn3Nw+y79nV3++Pd+F8d28eoNlnMB71Zlyd3X3sF0PFq9PSgzDg6POLp7n1feeIs8Cbi6vGaznpPnOZOrc5IootXuIssSJyfHRJsNm1J/KQBHB3sURUGnv0ut2eXq+WNqzSaW5XD6+HMOjo5p1BsMri4wDIuT27cpi4JGq0fobyhKqHV6hJs1t+/dZzYe4dZq5EXJ3fsPWK3XFGVFp9djPrxgdHmOv1qye3jA3eNbLOczLs5PRXl2/4hGu4vvrymrimarLQiTVYmhm4RRyOGtu8xnM5IoZvfohMlkyiQs6e0csFouSNMMt9Fi/+gW0XrGw6MO8WrG0cltTMtE0w3KIqdea9Dt9UnigMVkQpmmRKVK/+BQCP71FZKmMxkLDp+qGi9M78WTx3g1D1PXRZGpqphMp1xP5riWweD8GWWeY9kWURiQpTnH9x6ShhuKIkNTFGqNFrZj0drZYTYek+ciy1pPRsRhIKxBltBuNnj43veQKAVHczHl/NlXtHq7lGXGs6++4ItPPiEKRIBtVDk7+8d8+fnH6LqJaRhk2+mszb1bfPXFZ2DWXwqAkq7E4UySxMXTL+nvH6BWFUWekkUJsgTxtg3cdhzOT09RdR0jj8H0CEOfcL3aBmoJ08GQcL1A0S3CbceK6XiMry4YD6/o9HYoyxxFkomWM1YbMVfA2BaWZFVjs1wgS5DGCW6jIZor0pSqEGPs4iShu7vHajHhn/3hzwWl7PKS+w/vs7N3wGq14KtPf85v/PJb5GmKYthMpzO+/PJz9g5P8Gp1HK9OXhQoikyaxnR39+g4OlHkI2kaumGwnM6wDY323hGaKrNZLgWvfrPCrTVQDZ3paES73Sbw17z/3Q/wlyLDiYINvW6H4eUVq9WCPPSRZFkgo8sFtuMKhLXZodHusphNSOKI7sEhWRpTb/fRDYPNxgd/TlYWyLKM7XrsdFr4QSDSbcvG8Twif4Wsaczmc1oND9v28Op1ojjBUWUWyzmb5RxdU0hk+yUSWOQJu0e38ddLyjyjXa8xHQ2YjUfEaUwlK9x/8z3KdE29f0C92aB/chf78D5Z4pMnMaenz9k/PsGUCjotD7e7g6wquI02aZyQhhuavT7t/j7T0YA0SbFcj/E6QDEcdMvFMG32Dw6pWSqWY6KqCu1uh8VyhaTI7N+6h+XU0S2HNAx49sXnDEdzNmtftGu7FoOrS06ffIlMSc0xOd7fJ4kTbKeGpKocHp0Q+T6b1ZI4CVjMx8iaiWZYLBcLlkEkuqO8JvFN67tXo9vfwbYsHNfFsS3uvvIIr1bDXyzo7+5Ra7W498oj1rMRkqKiaiqd3g6XFxeYhoZt6MiaSpFnjEcjvvGt73J4+y5urc7w8pLp6Jp2f1dkGprB5UD0TE7GY3b2DoiLkm6tjmO7bNYbrocTqu3I3ThJONzv88Y33mCzXHJwcoevvnrKYjJFkSVUWcJPUtI4wbJtwUP8OhJ4Z6/D+PKMYLPm5O59stDHj2JxRnAF0+mE0dU5dq2FvxAtXLsHJzz/4mOysiKKUt779neIN0uSvGI6myFVoGoa/mqJ6XqMLi9I4hhkGUkSB0BNxyPyNOHOK6/x8c9+TKPZZDC44urqila7y2w6xbJNLi7OefOdb2K7NdarJZqqICsSumHyyRfPkXVDDHySZBzbZrl1A3f6Lq1Gk9VywXK1xLYsgk0EssR8MsQ2DVq9Q1RFJkvFgOb9W/cIfJ8kjXHcGroqkyQpVZHjrxd0eh1kCUxDZ3x9he04TMdj2rv7+Kslnd1Dqjxhd2cHSYLdgwPiKEaRZVrdLs3uLjtHt7l4/pjL0yeEfohMSbO/x3wyxPVqJElCp9NF25I514sZy/mM2WREmghqu6wo3Hr0Fh//6Ac0Gk38KOGrrx6jawbdbocKCcs2GQ6uaXa65HlGb3ePOw8eMri6IpGsly5ATRcokoyqaTz94gsq3WQxmyJLEid371MVomx5cPs+jz/9iIPjW6yWUxbzOY5Xx9A1pqMBwdpnORkjKyqmaZKnMb29PabXl2LDJzPm8zknt28TxxFlmvLKG+8QhD5yLgZJJ0lEWUkUacpmsyIKQm7deYAkbzdpeE2t3UNGnLj11ekQWdW5/eBVnj1+zCuvv8n1xRm/9Zu/zt5un/NnTzAdl8ODQxTD4P4b75KEa7xGA7vWZj4bkoQBzf4+wXrJenTFzsldzp4+prd3wGYyZraYU/Mc2u0GWRyxXK5E4azdZjm5ZOfgmMHZM9x6k6vnT8mikLSsSJIMr7WDJFc49QZXp89QZJlwvSIOfUxLTFzrH9/Bq9VRVZXI34h+fqnE90PkssCyTIqyotmoY7h1NqsFtldnOR0iITATSZbYu/0ITRFsaVmW8Ndrmu0O/npNq9slDAJxsKSi/GJjiD+5ot5oABK1Vgt/uUSWJFzPJU8TNpsNl+fnBMsZ9WaTxWxKVcl0dg/QVIlks8ZxXLIkotvfpShydNPAbTTQVY3B4BLbcujv7aHJCrW6h2UY3Hr4OopuIKkazf4+68mQWqdLs9VCNwws2+XWg9f44uOfkKc5iiyjULBazBheD7geLXB7RyiaypeffESWJwSrNQ1bI1pcIVcVt1/7Bqpuopg2VVViOR5BEIjR6Z7D4e2HXJ09Q1MFdOvU63heDVVR+PzTT7h1/yGtZoP5YonnWtTaOwLtDGPmszlVJVFIMvVWm46ag2FRlRVevY7tuMRJxvXpM5x6AxmJxWyMpqlUiBNb6w3BAYyjgJ2DY8oSpuMB3U6HRq2OYlo0uruMh1fU2x1xMmoFrVYD021ClXJ45xGLyRB/PqHp6Jw8fJMsz4lCH1VTCDYBg+srKCum0xmm47EMvzYi5qDfEtU93WQxGtBotbAdB9O2icKA9s4upqHT6bTFxI92B8syScIAXVFBAVWW8DwXf71EllU26xX7t19hMryi3miRJhHD4TV3H70hDmiiotweTFUVGUUaEicJXqPJYjpG1zQWswnL+YRbr7xJuF4xHV7R2tljM59TlCWXixjLdgi35/gmYUCSxLz76jGP3nyHdq/P089/zmIywNAN0jBmcPmceLMiiSKkCq7PxOjXcLPGNE12Dm+hmTZRsKFIMxq2QbRZ4XgukqRyfn7GzvE9lpMRh7fv4nl18jRmeH2BZNc5f/aMncND6t1dltMxs+GAervNfDRAVhXiKIIKTMslCkMuL8/RFJmiqvDXS3HOkKoTJQmDwRWz6ZTh5SmGYTG8uuDeozepypzReMLnn3zEO++8jS7FSLrDcrEkyQsGZ0/pHtzi6vkTigo0VQycsCyTOMmYDK/Ban3NBWQb9o5OWIyHKLpB6K/xl1Pceov5dIoiK6yXcwxNx3Q9NosFsm7j9Q6IY5/19Rl2q0cYRNx98CqZpNHeP+b62Veib10BWdMwDAtdN7k+e4YsqZRVRcdTcdQCq1pzdjXDX63o7e5TllBvtbFsm4/++A/ZP9gHSRKU6jyjkhRiDK4uryizBE3R0Ayd7779kNdfu8/VxQXLxUzw8XNhPXTb5c6jd2g2m2RJTLPVZr1aIsuKOH5FkZlNJvR2D4GS0dU5JSWGYdDeOWQ5m7BzcIxTa1FlEbZtIeURjd4+mm4S+T6tXo8oisTR8KrE3dsnXF5eUVWwWq3Iily0hrdqoOp88C/9DslmQholpFlGFIb87PE5SpFSFRm7zRpJURKGAbVGA3+94vzsFNMwee2973D69CsGgym6oWEYJlmaYFQJ8egZDc/k+NH7FHmKrMiCcT2dCK4B5sssoHdwwuXFKevlnHqzLQ5J8iOuzk7Z+GsmwwFZUdLYu8V8PmcTJizPPqfKIjzbpr5/zHo5x3IdLs6fM718RpmGWLaJoavU+kc0+4dIisbw8hRV1ajKhM1qgVZFKPmay1mKV2uIeEBVqbdaTK8vcesNvvnL38OwTIoiZzGZsFouGc99nj/5CtcxmE3HdNoeUpHScC2W0xl37t6FPCFNAtqtNq7nsZpcM376MXGwZv/oWPRC2A5vvf8d4kyMoXvl7W+SVwWTwTWNdpdGp8fBvddYzcfb+vwVg9MnKJoYCdvcPWEyOGc2ukYzNTEA0jIxLZfJaMRgMCDwl+i6wngypSxE8Docz1B1g9Vqzv4r36TRbtHf2SNPYw47Hl+eDlhFOZtSxnVdavUmiqqjaxpvv/894jDg6cc/5r1b+9uDtA3SRBxNr3eOMFq7ZFnB49/7z0n9JcvZnKIoMQyBqP5CFrC6/BJNUent73H6+Assy+Lk4RsoMnj1FnmR02w1mA2uCTdrOr0dNK/JZjnn8uKSZqfHcHCF43g0TYOuqaGMTvn8eiyCS8Mg8NeYlkUSRhzff0iru0vv6B5XoymnlwuWyxW1Vpt2b4fnn3/CajGhRGb/9n3yNGWzXoqzf8uC+Trm82dXGLpOvdnBtW2qPOX1u/ssZxOa7R5PvvgMw9BEzcB2xKQsXcc0LZIoYj4d09g5xms0ePrZz5BFHsH18yd4tTqDy0u6vQ7XFxfcf+0N+oe3sC0Xq94SfY1xwHotzvjZObjFYjqGsmKzWuJ4dapKBHGTyZhms8nu4S1u37mDZWr46zW6Kosh0hQML8/wN2t8f8PDR68Tblbstut4tiUEyq2/OM7+ybMzLEPi4PY9VEVmsomYjYbIirzlMTSoipzpbEZ37wjN8dA1leVsjGZaNBtNdE3D/zoSKC2H1LpdIn+DqqpsNj6X589xLJvJ4BrX8VBUjdce3eLyakReZmiaITDnbcDk1epousHps8f4QcDVyufh2+8zGw0pipwsTcVQo3aTTz/6hHa7w87xPX70z/8b7uz1Wfg+3V6fMg1xvRrtbpdWbw+n1mB08Ww7nLGg1mjx5PSKShGDlRVZZjIZ8uCVR9w6OSSLIwzLpOs6gulcZCiyJmbnxjFRnLCcjQnCmPnoik5/h+l4hOPVUFUFWdGwDY1mt8vl2Tmdfo8sy/FnA7767DPC9ZLW7jF5ElPkBaPz56xXc4LVDMdxKVIx9bQsS5LAp9PrYbgep8+eUJYFm/WK0N/Q7vUxTZPNZkMUBbiuI3gKoyHd/u52NtIbTAeXOJ6Lpevc2t3harpgNJ5imTp3Xn0T063R6naoNVo0Gk0sz2MxG+O5nmBTD645OrmDatjouokfBFiuyyr52nkBx8c7UJWs50v6B4csF3Pu3LtHGIXoukZnd4+D41ssVj7RZoOqabT6e/irFWWRosgKzZ19JMTUjCBOqPd2SOOAeqPJ9eUZRZ7iejWCKEbTVJaLOfPhJUEYECQZiizmCKdphu3V+PyP/jlOp09elFw9f4JtmdtzhwqeDxcoqsbJrWNOjo8Zj4Yct2wif8NnXz3h93/8c/wool5vEMfRdqScRFmV7B/fIk1TtC3D5/rsGa+/9x2yLOH8yWOWywXtnQPG15eYpkWRpTQdi8urAYapMxgM8AwVw3HYLFfsHh9xfXHOa+98E3+zAFkV5dayIIkDUDTa3V2KXDRzpGnKrfsPcesN5pMxmm4wHg0Yj8ZIlTg2Z7+3g2wYBOs5Tr2BVOZcnp1yfnkJZUGUZkhIxMGKWqtHd/eQsy8/5fD2fa4vL6g1GsSBj6aovPH+93jy5edksSDytnZ3SZPsF/sC6lrO8Oqceq2O57psNmtU3WC9mHFw71X82ZhgMSFcLTh8+Dqz4ZU4066qqApx7FscrBmcPUeWJNJMnD3kNdssF3OBQJkWw+GAw+MTGu0ere4uZZljOS5VVVFr1LFsm9loSJYmNHb2WC+WLMYDdnb3sA0Do97ghz/9mELSWC6X6LrO0UGfMtrwK7/xWyxmEzrNOn/qz/45lCyhoqLWaLOczQiCEEUSAy69Wg1DKpkvFxzfe8hmOaXW6tHbO6TIElbzGZbtMBuPqYAkE2Ppba+OIsPtV78hxsdrGp3+AWWZcvb4KyRZhyKjf3jI/s4+9XaX8+dPcFyP17/1wZapk27NecHg6oKqAk2W6e3s4bgOo8EVsm6ynE1ZLRcAuPUWzVaTqqxwHBvb0Gg0Gvz4o8/48rOP0SgYjy5ZTKec3HuIZnmohs3Fsy9ZzSZ0+33COCIKA8G6nk6ojK/VApL5Nc12h9Bfo9kuiqKSxBFHd+/x/NOf0en28NcLTMclCQP2T+6xc3IXfznDqdXo7u7T6nZI41gcg7pZ0+l2kBWN5XTM0a07xOGGwzsPUTQDr1ZDkioMyyMKfGyvTh5HDC/PaTTb7B0eslmt2T04IM9z/M2GtChIs4LSaDGbTtBUlf7BEf5mw72TPexanc1yRp6mhMGaVqeFqqi0uzt09w658/o7OHLGcDhAVQ38KNqOZcvI0pTJYMBmMRUjZ1WN4dUVt195BcM0mY4npKkY6z4ejVkvZnhek8l4yM7+IZ2dAy6efkGeRjQ7ffK8ZOOLZlXDNNFMgzSLKcoSf73CdjzOn3xFVuR0+zuUVGyWcxzHRdc1Wvu38FdzTu4/RNMNQn9FvbPLcjYiSxLiKCTPUna6HaIk4+joGFlWyNKM548/Zz644tmXn2Jslc40LSRJEiexFAV5llFoojtY+eCDDz482eug6zqd3X381RrdsvFaXeaDS5xGgyzNsOt12m3Ri67KEs+ePsHzarS6fZIwZHB5ge06dHb22Ns95PriXDQytDp0D+9w8eQLDEMca6bbYnT86PKUCuju7mM5LuvFkp3DI0Bis15RIjEdjdg/uYuiqTw5G/LzTz6HqiKOIzqNOp5eEAc+8/EQpcxZ+2LCVxxGIBVcnT9n4685ufcKO3deo0gi6t0drp8/FWXfyYg8zdENnfVqhVevkWaCSex5Hrrp4DomqiQRhgG6rrFarfDqdaBks5zzyU9+CIrGwfFdNFO0thd5gWmbRGHMerHEqzfRTRtFkfCabQzDYHB1Qa/fw0xWlJqFaVkiYzE0Tl57h+l4gm3ZpEnMFx//jDRJePXtb9LZ2UeWK9I0pUgimr1dojgm3Z4PcHL3Pq1Gk6+ePuNb3/llBpenvP7WO/z8xz+i3myxu3/AzBdTwmSA69PnrOdzVtMpV+dnnD99Qh6H3P/G+2Rpxnq9IgwCar0DkiRlOBjwzV/5LXEgYymxXM5FV4qkcPrVF3zxyU9pd7vohkGj1WBy9hn3Hj3CcmvIMkyvL9gsZyznc7xmi9Bf49VqNFpNFpMh0+GALE2RypwP/tSfQ1Ekvvj8K+argOOjI2RJ4t6DV1A0nf3dHXHCaVVg1erYjkMY+qi6xtH916i3u1R5RlUhTs0Kx6hxIDKSOMY0LaJoQ1mBpqk8e/yY997/JWxDJfaX1Gs2qqZRIrF3eEx/9wDXcVAVFUs3yNKMjudyfOc+eVngBwGN7i5pkhCFoZg7lCVIVYXX6pNmGaqqoxsG73z7e4yurrhcROi6SVlVXFycc319ydlnP8VfTRicPSNJYnq7u9x58JAnn31CHKxRNYuqKAT7dySYwRVQKQae53J47yG/9msfcPX8K/YPDtn4IbV6nWa7w3q5/MU00DNlDNvk/OyM3f09VE1jOZ/iL2d4tQaqptI9vMfjj39M4G/wNz5VVdDd2WdyKfz+zs4uURQgKyqeVxO89L0DNusV1xcXJFHAvVfucX1xjdfucvrVZ9RbHUzTEketlBleo8Xk+oqdwxMMQyEOQ5589in/+//4H+B6dbK8Ig59bu/uMB8OudPUkXUVx/XQDRPf31Cr11ksliiqxmxwTa3ZJMtLNFliePqYx1dDcmA2GfHgtdcZDwY06k0kCU4evsZyNqbf63L3wQN+9JMfMxnPkcqco1t3OX/2GMuyiPwNYRDRaNbZPTyiQCIMQhbzmTgaFolXv/E2k9EI0xJHwDWaTc6+/JSyyMjTmPV8iluvoSgKbqPJdDQkSWK6e/uoqoZuWMS+T//kNkWRI0mwmM05fvAGz774hCSKMG2bPM1p9fpcnz5FN0wM02R4fcVkcE2RpXiex2q1QAJ29o958sXHjEZTNK/z0gWkqxGbxYJas0GwWVNV8OC1N8QM4MUYf71BVSXyLQHTMAyyJGazmJEkYm7e9fkZ4WbNq+//KqdffspqOWcyvCKJYtarNb/6uo7vZ9T371OmCRQlR7fu8eM//BeUWcpkOCRPE7xWh9H5c54/fU4abDi8fYdut835ZEkYBzQ8l069jqGAZkicnZ1hmhbj8Qh9m44ePXjEfHhNECUYhoGqGxR5hu9vCNYr3v3mu9y5e8xXn32Brhv0Do+oyoI8DjB0jTSY8wd/+ENxMJamIlWlODgCMDUVQ9XxQ58sKxhdD3A8l+Viie26WLbN6OqcKPR55923SUOf+6+/zfj6nDAIkaoSTTe4OjtFlmQMx0F++lPck1fEwU9lxdXFKcv5lNsnJ/z8Jz/h5OHrFFlKrd1jOR/SbDbZ2d1hPLjm4GCPvCxwbYssDsjThCTycVyXLEsxbY+jk9s8e/wVpmPjNRpoqkIiCSRQ+eCDDz5sOyp33/o2SbjBsl1Wqzn3Hn2D/1d7Z7YkuZme5wdAIpEJ5L5nZWXtVd3VO6dJcxnKQ0lBWSPLOlH4yDfDa3JMWBE+sC2NPMOgKQ7ZzV5rz6rKFbkhE/umA5Tovgcb14Dlx/e97/NYqwWTfp/Pv/47gsBjvZjz9Nd/ieckarRB74K9w3uEccRCn7B59IDp8AZRiCkUSgkTT4j49N9/xTRs4AgZvv2f/x3PNGh1d7Bti93DY3K5HLKiYK5MtFKVw8cfcf72JVuHx1xenPHucogiZ5DvMPWj2RLLNjg83GM0mfA3v/0ttmVSLFfIqhqeaSSI9UyWXKn4S4jDWi9JSzE7mzUCa4UkgmHa2OsVw34fx7KQM1k6B4/xbBPLNKnV6oRRxEeffYmhj2h398hrGsbKQBBias02c33ExtYu1mrJZDigUKqg5fPUynlkwWY0mFCuNvFsi0wuR6GStI8c2ybwPd4MZuw9eIK9WqCVyriWyebWHkEYggDz+ZTx4AZztUCQRExzhRuE1GoNOu0S0/6QjKJQyCgUNBUvipPRfSaLMZ/y9tVPFEsVMpkMvfNTjh4+ZfwhKrYgg2Ov0bQ8a2NBDBQqNVJCRL7SZNg7ZTXVIYpYTodoxRKR77O5d4gx07k+P0uIVFKiOLVNk1gA27ZQ1DyxpPDdH37P6ZvX3DvaJyVKhDEspmOktMx3//ufefnmLa5jYy/muOs5AjGdjQ0cN+B2vOTxk6ecnLxHlGRq4Ywvvv4t1XqTg3v3mS0W3F73qNQb+J5Dq73JZNCnvbOHZSyQU2nmswm1ao3laEh77zAxnixXrNYrXMdn//CQlJTi7OSMrXaV+8cPwVviRylcz+P64hRZkjH0YRIBE2F374BIEJjPdG56F0RhSC5fQFYUZvoYy/GZL21iJFKKgqZm8H2X8WCAsZwnhDPL5Omnf8Z6NqTc2OTV93+EKKRUqeIHHlu7B7iWyXff/UC1VMZcGxRqDRzPQdHyvH31Dtt1effuhHs7O0kLqHdJZ3ufjJojIEHT3PRvSUsC3a1tJCL0D9fBUmiy9+BZAi1sNKnWm5y++gnfc5gNBwmr1pjz+OPPuL48YzkZJ4uL9Rp9PCItijQbNRzfx/NCSvUaq6VBrlji9OycUb+HGAVs7ezguS7NToeUkmE5m6FqBURJ4lcff8JkrFMs5Wl3uuRLFcbjMYOZxfnVDa654NlHz5hNp3zxH/4ThBZaYxtklT99+7/4h3/8jgcHO4hRQGuzS+/iknH/Fi0to+by9Hs91HyeKI647t0w6A85v7yk3mywNhYEEbh2kl+4/+AxoWPR1+d0u9tkZZHt3QPevv6Z+w8eksmmmS4tRuMhe/efkJJThK6bnCPuPWA6HuG7DsvFElFKMdcn1Bptfv75R/KZLGlVJZ3JQBiyWi1x1gbZXAHfschkMrS3drEWU46ff8bp6z8xvO7xV3//Xyg3Wuj9a7a29pmORxiLCblSCd8L2d/bxYlE4tClUSxirC0am10effIVSiZLRpbxnaTyJisZ9NUHrOCdrU1kWWZz74jldIi1XCBLif+32tlkcnuDnM6wmE3wbJtCpQqIrFcGoiCQyZeJBYHJaMRiOmF7bz+xZ0URmXQia8znc+QLBQrFItZdnCujJkpVfTREEkXGkxGEPp6b/DoFpPjTyzcggCwnp+SsqtKqZMlXmlycniSr29UaKfaolXLc/+gL3v/8L2zt7CJLictRTons7O2xmOuUaw0yqoosy3z6F/+R2XRAuVpFySi4tk0UhjjGgoKqcjsYcd27ZHNzC8+26O7sMbnt0d1oo5braPkck3EfQUh0MYIgsF7MKZWLHD76iCDwEYF8sUgsiGx0txLfn2NhzKfI6TStzR2uexdkMiqiKCArCovRKOkDLnQef/ob5uMhUeBQrrVYzXRmkyGuZZGWFcrVcqKvj0VSKYnhcMJ8MWP76CFnr37CM3RG/WtiQSCRowT4QcA6+AAXL9hz5LRMOiWi5Qrog1v0UZ90Jk3kuhiLKWqhSP/mmp17D7k6P2N7/x65YpFKo41tLomjmM3dfaq1GkEY8/bVK46ePMdez3Fth3KtBnF05+Kb0GkUsHzQ8jnmizkiIt1ul/b2DkpGYzIZM3MFjFVScd7cO2Cm64juEjwLOSWymE1x5kM6G21q1RJKRuPtT3+kubFFFEeYlk0Ux1iOi+041Lf2meujhHVwdMxsfIuUkhgN++QK5eSpjGOm0wWOKJNWM6zmC3L5HD/++CMTfYIfwc8n5ziuR7FaT0oYoZ9YR+7M6NP+TVIf2ztCkhM6qGkarGdzqq0OURjgmhaKquE6CYXk326I/tUFQeihyGlcx+Pl93+gkM9RqbXQ+z20nIackphOdIqlMhtbBxSKZUwj+fMhJlmV2xZaNkO11iAVBUxnU0RJQJBkFrM58Yep4GZJQxQTQ3UUxZz8+C35cqIudR2brKbS79+wvb2NVmlTrpSZjYfU6nXev37J089/g5JVGd9eEwUBM31MpVZnPu5TqtST9WMco2RUcrFBLRuTzaTxI4lMoZpk4ncPCMOA4c0VKRGu+gmPT5IS0vVsMuE3X31JXoqoNRos9BGbGwmoSc5mOHvzguZGG1lWqNeb2H5EvljltneGKIhs7B5xe/4u0a6lM0yGyXd4PBxg2w6e7SR+4TtCmmtbqGo+Qa2EIbKSxrUtCpUqu4fHSSxLy6EP+iyXC7RcPpntKxlK1RrPPvmMFBG2ayHJCtlsDsdeE4QhYeBz9PAp6ZRA7+IC27ZxPQfbNLn/5FeYxvIXa3qp2iBfrPD6xQ8UKzXiKGa9NIgFkSCI0FQN05gxn03p7B+j928IwoDcHXTj9OQdopym29kkJcusVmZiI/9wEugv+hTLNSR/zfXFGf5dmdP1XFzHY7FckFGyWKZNEPislzMyWZXp6BbTmFNtdri9OkFKJd6gUq1OEIbUGy2CMMJaLQiCgPlUZ69VwfdsnEBkMJ3jOR7lWoM4ihj1+0iShO36TIwAy3bxXJswimhtbhKspvjOio1qjrWxxAthoeu0t/fwLAt3beA7Jnl3zMnlDcVSARmolEv4YcByPqPaaLKxk/QajPWaxuYeprGAOEAQZKaTMVq+iOvY+J4LcUg2V8R3HVQiBuMxipLGWi2ZTyfous6rNyccHe5TqbfxHIujRx9xcfqWcjkJnLhOIuAOPJ+5PkbTkg6lPp2SUVUqtTrm2qDRbKGPRnzxl3+N4/mYywWe55ArVcloGr6baOOarRbGfMZ8PmU5nyClkla1vV6AAGq+yEwfc/joOb6XTAj/zae80d1MzjzyB91AwVkwvrlkPElIFD+9v6JRL5NOSdQ3OggI+J5LHIV8/Owj0qpGTEhKVjh9+xqigKyWJ5WSiQKPOIJiuUbsu+SyGWa6Tq5YotbaYGJYLB0JXymQUQtY60Ss7DtrfN8nCCKuhjMUrYhWKNBqt7n34AmBa9FpldneP0DBZ2ejxvXNACGdoX99he26PH/+CRfn59TzMlImR+h5HD99TqlcRc1mMZYGM10n9D1kRWE+WxLEIIuQL5WwjCVBICBKKWbTGc12G0lKYa8Ntg+PWVk2u0fHyXBnZSAIoOVyHB4ckM/l6ffOqbU2ePnD9zQ2d7m5uiSMwHNtBDGNkpZYLRds3XvI+euXSIpCSpLo3/QSkNad4Nl2kr1+ud5iOh5hLmc8/fwrbq9OkaQUk/EQRcthj3XSagZJENjf6nJ6fkpKlKi1Wuzdf8z/+f3/QJBEDh8+5bs//DPlcpHlcontmJCt/t8bQHSX+J5Lvd3BdJOhwvuTSw7v38OYz9nc2cOY6mTzRSzbZfPgmDD0cW0HKSVzcLBPc/sQJaNQaTQSjNliTiqtMJvqKFmVq8sLmq02hcpd68cPiKKQTlllYbpo+SKeHzKdLdCXLhvdXVzXZTmfYSwWfPL8KfZqhmvbvH3xklypjBOlWC4XVJsdiAXUYpnZ6IY8DktfpL1zyM11j7OzM/RhH0GSyKoqze4Oge9xePyQ/tl7coU8zc4OQhwhyWm29u+zXi7YaLdw/YhUWmJ8O8D1LIzZjLUxx3dd1FyeMPSo3MEZBUGku3fMXB8wHw8pVKqYc504jhPuj2miqFkEYtJKGlEQiRAoN9oEnke92cIPPPT+LZ7rks5ksc1kNrO5d0jv/D2T4S1CLFEqF1E0jXYnqe37XkChUCSrqWQlkcFtD0VR+OzLv8BeLaiWS1SaG4xue7Q3uqw+PATmpAA1X0DOqgxuehiGQamokdc0csUicjqNuV7T2NzCMBYsJiMuT9/iOBbpdBo/EsiqKnEMk8EN/d4lYRQSRz6ZjEpeVXn85dcsbk6YjifkC3miKGI+nfLm/JqNzgbLxZJYFJitXUilGY+GST0tV6B38prInNNottC0PFqhwM3tAK1Y4vDBU/TJGNM0WM2mqGpymtbXPko2S+/ygnang3sHwGp0uvRO37H/8BnEUeITaG1w9f4N8+mE53/2NblCibc//0SxoPH29c8UixU+//rvMKaDJDCi5mhv7RL6SVvKNaas1hZCDOP+BbVmB9u2SKUkGp0dxoNr7PUaBFjO57RqVfw4xlxbDG+v6WxtY5sGk8ENcRSj3PGAfNfGWq/JF/PU2l1ULc9qNk4O144FMXS7W9TLBSjUEq7SeMRsvqBSrSaN4HSWSr1BKpUiraSYz+comRTr4INEUC0bE8YCIgKtSp77xw/oXV1QrzfJZLNIksTxR5+xmM0Z3FwSeG4S5S5XE7K279Jod8gqGd68+AEtVySbyxOFMZIkYjsekhAxuLrg8z//c256V0njJqviWMn+oFgqYFomC0fkunfFs199gm1ZmMs5D/Y7FDWF5WzCeNBnv1UnTCmIUlKamIxGNNodipUKa8MgzhbY2NpBH/YpV+uYppm8TWaJAKPcaCX61XSG24tT8qUylrHg0cdfcPL7f8CJYq7P3/P5X/9n1qM+xtrAWc/vPm8RAon55PDhExa6jq7rtLrbyOkMoR+iFQu8f/0aMXBRNZWUIJBRNfRRn93D+1iuy2KqM5vplMpVrLVBqVxJzOLLJa12h/2HT3CtNVN9TKFU4er9a/YPjri97rE2FkkYJ4a1ZfLixUvMxZQ4jpMcRiFPpZawmteLGX4QcH15zs/ff8vu4RFKtsTc+mAOYK9XjCc6Uuyxe/SQ3/3uv/Lk2TPM9ZpH/+5Lqu0uUipFVlXR+9c4dgJVngxvsS0HTc2y0HVO379hc/8Iz7GptTtkVY3FYooQx1RbnUTccHVJZ/cevmPj2BbptEK+WCSMI96dD3F9n2KxRK3Zwl4vEXybo70upXqTYrFEpdEkEmCju8e4f0MURVimydqYI5GQRW5f/UgopkEQcecTbN+/6+5n2NzevfPxhVy+e029vYGxmLH/+FPMpU73/jNGL75lODPo7u4yvLngq7/5e/7lD//EbDajVCogyVmKxQLWOimIzBZLAtfD8xy6B/eRRJkHjx6j5VRSkoDnJdvIervDarlEFFN0D44R4oDt42esFhM8z2M+GVMsVugeHPPiu39KNqKCwPbhQ2xrzfm716Rlmak+4uD+Me/evKVSqyaJXynR8Lq+h+M6aKpKWk6AFvowoaUJYlLVm08muOIHuwB9cI0kp1AkqFarOJaJbVnMpjqHT57jmIlRZDy4xvechFVbrpORUjQ2O/ROT/B8D1GUsNdL4gh818EyVwgRbN97RBj6ePaaCJH5TKdUrZLNF6k02wlAyjAZ6kts00bVsrz++QUbnS6tqkZKEpmN+qyMJYHnkVY1HMdmbRhYK+NOQa9i2haLyZinn/2aXC6PKMvIao7RIPEburaJklHIlxMEfUbVyBYKrOZzfNtg1L8hCn1y9Q269x6TEuH+k494+cd/pLm5hQgQxBQqJebzGZKUJqNpzKZjPv7015yfnFAslRn0Luj3LhgN+tQqFUzTgZSALMt4nstC13HtFUpGY3DxDt9aU240qdRbIArsHB4nTODAAySWswRFUyhXCUKXfL7EsJ/0LRBjuntHKFkVYzbj3tNnzIYDBOCyd0k+r1Ku1hiPRsSAMZ9Srdd/wcRJX3311TdpIcB3kuGKaZq8PT3hwfF99g/vcfHqT5y/eYFpLBn2LjDNNZVKDTWfY6JPkFIKnueh5ousl0uam1u4to25XlFvb6Ck06znOlJaYToccfDwCWHgsH/8lN7bn5iORuj6lP7MolgqkS+VOXv/jmKpQr2cp6SlkcQYz40SW3a+SEoUyRUrZLIKnu9RLpeR5TQzfYIgSghiisCzqZVK9G8HCFJi0AzDkFZni9V8wnK5YuvwCGM6TsovzTaOZfHsq79FULI0Nza5OX1FFMcoikwUw+j8PT4x52dnHP/qc6ajPtVmh97FKY5pUqyW6Z2d0djokM5kyKpaEn0XQgxjRanWIo6SOYA+HpMvJEyGi8se5XKZIIxYGwa2ZdDu7PD+5x/Y6jSwbJfpZMTx0+fcnJ1y3bskCjwKpTL6cITvJSLKSrOFtZyTzmYoV6rM9GlyowoxhWJidKtUa0iRxzr+4A1gTW/ptBo0urvEgUdaEtGKFW7PT7l3/IC17XDy/j2b29vYlo1WKCArGTY2d1CLZQbX50ipNKmUyOC6R729yXq1xDSWeJ6HYyyQlYRjl1IyvHnxE4W8hu24ZDQVSavw/vSC0WiCZVmoai4JO2QF0rKEcNdbrLc3GV5fkc9rxGFIGEUspzqVRhPLtkkJAoHv0t7aodLa5PLi/I7Ancb3A1qdLr/73X/jwaNHFPIajdYGze376IPrRM8Shrz6/o+kpJhqa5P+5QliOs16tSIlCMiqhu8n3iRBiJDlNL2zE3b2DhO59B1iLpWSMI0l2btJn+v6pESROLDJlVsEnoWUkvE8nyjw2drZRojh7evXaJqKPuzjBQFzXWd/p0OzrBFJCqZto6gZfNulu3eAMZtRrxbIlWqIIqyWCxrtLvrghrQEh4dHxFFIvlCksbWFZzsUK1VM2/mlGCJ888038S/xkP9//T91ffPNN8K/ApKZIvAwno6rAAAAAElFTkSuQmCC;" parent="1" vertex="1">
          <mxGeometry x="24.959999999999994" y="343.26" width="87.67" height="65.75" as="geometry" />
        </mxCell>
        <mxCell id="VErfhOKP2oG6R9ijQwRs-5" value="" style="shape=image;verticalLabelPosition=bottom;labelBackgroundColor=default;verticalAlign=top;aspect=fixed;imageAspect=0;image=data:image/png,iVBORw0KGgoAAAANSUhEUgAAAIEAAABhCAYAAADx5MLSAAAAAXNSR0IArs4c6QAAAARnQU1BAACxjwv8YQUAAAAJcEhZcwAADsMAAA7DAcdvqGQAAAP4SURBVHhe7d3Naxx1HMfx9+83s8nsbh5qUrFUjZRKa9GiiCDS4EOMgqBWqBcv4sGLN48FD/4F0pMeCvYkKHjoQXIwmJNCtU1s2qQR+qRtTW3SpDHJJjvZ2Zmvh2RbHZqTt9nPC/awy3xP8979/faBWQcY0s4ciqCtGYDPPyrtRxGIIhBFIIpAUASCIhAUgaAIBEUgKAJBEQiKQFAEgiIQFIGgCARFICgCQREIikBQBIIiEBSBoAgERSAoAkERCIpAUASCIhAUgaAIBEUgKAJBEQiKQNi6fJm1LmNWEDvefOP1V/v6HnzkwoVzMxOT0xPAnfxBAq1zX6QIosPvfXDmxo2bT1ajkN07u7l5e4kNyux97OGVr0988RCwkR9qc8WK4OS3X43GSWN4YW6elVqNchSRUmJxcZbujk4WVtdPHjv2+ZH8XJszwBVlTxBMnBkfuvjbJKllRFGZH0+NMzLyHQf2PcGex/fx0uDg20A5PygF2RO8/+5bx3cN7P0wKPfSUYKB3TtJ04y+vn6CAM5OXWL45UOUSuHYC4NDr+Xn21hxloOjH380SqlrOG7CStxgubbO8nKN+fk56nHMA709HP/sU3Pezzz97PMH8/NtrDjLgfdBGlUqGI6smWHNJmkzoaMzotrVQ7W7ly+/GeGPa9cv5WelIJ8TZEbgg5BKV4VqV5XOqEy5UqWzXCXsiFiLEy7+ft3Fcf1qflYKEkEp9IEDArd5C8OAMPSEocdjOEsJAs/l0dH5/KwUJAJobW8gtcxW6i77c8FSzLCtK/k75zg3dV7vDu6jEBEsrqRNzEgzA3DNFPp7ws17bAbicJyevfXXfwYFihJBGAS2+V7HYYb9MLVmt243cGbmAIfDB57ZhaVf8rNSkAjKUWKw9dJvxlM9Neb+rnuz7O7fugTOkyTJcm5UihLB+loSm4GZmeG4vNHHwT0VZ60CHOCcAdoY3kchIkjSIDMzJq8YqWGvHAi5NmeWmbG1ToD3BtTzs1KQCLxzOOeISg7vjO+nGzy6y7nWB6HeQbgZwd29otxTiAiSNI0zYEcXZAaHnyu5X6+kQAaAmeGDQAFsoxARTJ8fH9toGv295hzmsyTxh/bjDedaT/4g8FoKtlGICE6Nnz3RSLL5OIF6A+LEiJPN059mRpp5rp4e028JtlGIbxFbBl8c+mRg/zNHV2ur1dXVNWr1mDiu35md+fmdpaWln/LHy71zr7WyfRlFWQ7k/1EEoghEEYgiEBSBoAgERSAoAkERCIpAUASCIhAUgaAIBEUgKAJBEQiKQFAEgiIQFIGgCARFICgCQREIikBQBIIiEBSBoAgERSAoAkERCIpAUATCv65eJu3L/QPdX1DtqTVCrwAAAABJRU5ErkJggg==;" parent="1" vertex="1">
          <mxGeometry x="115.52000000000001" y="342.51" width="88.44" height="66.5" as="geometry" />
        </mxCell>
        <mxCell id="VErfhOKP2oG6R9ijQwRs-10" value="Foreground" style="text;html=1;align=center;verticalAlign=middle;resizable=0;points=[];autosize=1;strokeColor=none;fillColor=none;" parent="1" vertex="1">
          <mxGeometry x="22.629999999999995" y="409.01" width="90" height="30" as="geometry" />
        </mxCell>
        <mxCell id="VErfhOKP2oG6R9ijQwRs-12" value="Background" style="text;html=1;align=center;verticalAlign=middle;resizable=0;points=[];autosize=1;strokeColor=none;fillColor=none;" parent="1" vertex="1">
          <mxGeometry x="112.63000000000002" y="409.01" width="90" height="30" as="geometry" />
        </mxCell>
        <mxCell id="VErfhOKP2oG6R9ijQwRs-16" value="Geometry and Lighting&lt;div&gt;Condition Images&lt;/div&gt;" style="text;html=1;align=center;verticalAlign=middle;resizable=0;points=[];autosize=1;strokeColor=default;fillColor=none;" parent="1" vertex="1">
          <mxGeometry x="43.959999999999994" y="443.88" width="140" height="40" as="geometry" />
        </mxCell>
        <mxCell id="VbgOxsWMJbJemNrP68dz-79" style="edgeStyle=orthogonalEdgeStyle;rounded=0;orthogonalLoop=1;jettySize=auto;html=1;entryX=0;entryY=0.5;entryDx=0;entryDy=0;entryPerimeter=0;exitX=0.998;exitY=0.5;exitDx=0;exitDy=0;exitPerimeter=0;" edge="1" parent="1" source="VErfhOKP2oG6R9ijQwRs-21" target="VbgOxsWMJbJemNrP68dz-124">
          <mxGeometry relative="1" as="geometry">
            <mxPoint x="546.03" y="411" as="targetPoint" />
          </mxGeometry>
        </mxCell>
        <mxCell id="VbgOxsWMJbJemNrP68dz-80" style="edgeStyle=orthogonalEdgeStyle;rounded=0;orthogonalLoop=1;jettySize=auto;html=1;" edge="1" parent="1" source="VErfhOKP2oG6R9ijQwRs-21">
          <mxGeometry relative="1" as="geometry">
            <mxPoint x="310" y="280" as="targetPoint" />
            <Array as="points">
              <mxPoint x="310" y="360" />
              <mxPoint x="310" y="360" />
            </Array>
          </mxGeometry>
        </mxCell>
        <mxCell id="VbgOxsWMJbJemNrP68dz-81" style="edgeStyle=orthogonalEdgeStyle;rounded=0;orthogonalLoop=1;jettySize=auto;html=1;entryX=0.5;entryY=1;entryDx=0;entryDy=0;" edge="1" parent="1" source="VErfhOKP2oG6R9ijQwRs-21" target="VErfhOKP2oG6R9ijQwRs-53">
          <mxGeometry relative="1" as="geometry">
            <Array as="points">
              <mxPoint x="310" y="320" />
              <mxPoint x="382" y="320" />
            </Array>
          </mxGeometry>
        </mxCell>
        <mxCell id="VbgOxsWMJbJemNrP68dz-82" style="edgeStyle=orthogonalEdgeStyle;rounded=0;orthogonalLoop=1;jettySize=auto;html=1;" edge="1" parent="1" source="VErfhOKP2oG6R9ijQwRs-21">
          <mxGeometry relative="1" as="geometry">
            <mxPoint x="550" y="280" as="targetPoint" />
            <Array as="points">
              <mxPoint x="310" y="320" />
              <mxPoint x="550" y="320" />
            </Array>
          </mxGeometry>
        </mxCell>
        <mxCell id="VErfhOKP2oG6R9ijQwRs-21" value="" style="shape=cube;whiteSpace=wrap;html=1;boundedLbl=1;backgroundOutline=1;darkOpacity=0.05;darkOpacity2=0.1;rotation=0;size=14;fillColor=#E6FFCC;" parent="1" vertex="1">
          <mxGeometry x="300.97" y="377.63" width="20" height="66.25" as="geometry" />
        </mxCell>
        <mxCell id="VErfhOKP2oG6R9ijQwRs-20" value="" style="shape=cube;whiteSpace=wrap;html=1;boundedLbl=1;backgroundOutline=1;darkOpacity=0.05;darkOpacity2=0.1;rotation=0;size=14;fillColor=#CCFFFF;" parent="1" vertex="1">
          <mxGeometry x="288.97" y="377.63" width="20" height="66.25" as="geometry" />
        </mxCell>
        <mxCell id="VbgOxsWMJbJemNrP68dz-66" style="edgeStyle=orthogonalEdgeStyle;rounded=0;orthogonalLoop=1;jettySize=auto;html=1;exitX=0.5;exitY=1;exitDx=0;exitDy=0;exitPerimeter=0;" edge="1" parent="1" source="VbgOxsWMJbJemNrP68dz-124">
          <mxGeometry relative="1" as="geometry">
            <mxPoint x="580.0000000000002" y="444.01" as="sourcePoint" />
            <mxPoint x="520" y="550" as="targetPoint" />
            <Array as="points">
              <mxPoint x="360" y="421" />
              <mxPoint x="360" y="500" />
              <mxPoint x="520" y="500" />
            </Array>
          </mxGeometry>
        </mxCell>
        <mxCell id="VbgOxsWMJbJemNrP68dz-67" style="edgeStyle=orthogonalEdgeStyle;rounded=0;orthogonalLoop=1;jettySize=auto;html=1;exitX=0.5;exitY=1;exitDx=0;exitDy=0;exitPerimeter=0;" edge="1" parent="1" source="VbgOxsWMJbJemNrP68dz-124">
          <mxGeometry relative="1" as="geometry">
            <mxPoint x="580.0000000000002" y="444.01" as="sourcePoint" />
            <mxPoint x="280" y="550" as="targetPoint" />
            <Array as="points">
              <mxPoint x="360" y="421" />
              <mxPoint x="360" y="500" />
              <mxPoint x="280" y="500" />
            </Array>
          </mxGeometry>
        </mxCell>
        <mxCell id="VErfhOKP2oG6R9ijQwRs-38" value="" style="shape=cube;whiteSpace=wrap;html=1;boundedLbl=1;backgroundOutline=1;darkOpacity=0.05;darkOpacity2=0.1;rotation=0;size=14;fillColor=#FFE6CC;" parent="1" vertex="1">
          <mxGeometry x="220" y="223.32" width="20" height="66.25" as="geometry" />
        </mxCell>
        <mxCell id="VErfhOKP2oG6R9ijQwRs-39" value="Z&lt;sub&gt;pos&lt;/sub&gt;&lt;sup&gt;0&lt;/sup&gt;" style="text;html=1;align=center;verticalAlign=middle;resizable=0;points=[];autosize=1;strokeColor=none;fillColor=none;" parent="1" vertex="1">
          <mxGeometry x="205" y="289.57" width="50" height="30" as="geometry" />
        </mxCell>
        <mxCell id="VErfhOKP2oG6R9ijQwRs-40" value="" style="shape=trapezoid;perimeter=trapezoidPerimeter;whiteSpace=wrap;html=1;fixedSize=1;rotation=90;" parent="1" vertex="1">
          <mxGeometry x="212.61" y="392.46" width="80" height="33.09" as="geometry" />
        </mxCell>
        <mxCell id="VErfhOKP2oG6R9ijQwRs-45" value="" style="shape=cube;whiteSpace=wrap;html=1;boundedLbl=1;backgroundOutline=1;darkOpacity=0.05;darkOpacity2=0.1;rotation=0;size=14;fillColor=#994C00;" parent="1" vertex="1">
          <mxGeometry x="272" y="223.32" width="20" height="66.25" as="geometry" />
        </mxCell>
        <mxCell id="VErfhOKP2oG6R9ijQwRs-46" value="Z&lt;sub&gt;pos&lt;/sub&gt;&lt;sup&gt;T&lt;/sup&gt;" style="text;html=1;align=center;verticalAlign=middle;resizable=0;points=[];autosize=1;strokeColor=none;fillColor=none;" parent="1" vertex="1">
          <mxGeometry x="260.97" y="289.57000000000005" width="50" height="30" as="geometry" />
        </mxCell>
        <mxCell id="VErfhOKP2oG6R9ijQwRs-49" value="" style="shape=cube;whiteSpace=wrap;html=1;boundedLbl=1;backgroundOutline=1;darkOpacity=0.05;darkOpacity2=0.1;rotation=0;size=14;fillColor=#FF8000;" parent="1" vertex="1">
          <mxGeometry x="331" y="223.32" width="20" height="66.25" as="geometry" />
        </mxCell>
        <mxCell id="VErfhOKP2oG6R9ijQwRs-50" value="Z&lt;sub&gt;pos&lt;/sub&gt;&lt;sup&gt;t&lt;/sup&gt;" style="text;html=1;align=center;verticalAlign=middle;resizable=0;points=[];autosize=1;strokeColor=none;fillColor=none;" parent="1" vertex="1">
          <mxGeometry x="316" y="289.57000000000005" width="50" height="30" as="geometry" />
        </mxCell>
        <mxCell id="VErfhOKP2oG6R9ijQwRs-51" value="" style="shape=cube;whiteSpace=wrap;html=1;boundedLbl=1;backgroundOutline=1;darkOpacity=0.05;darkOpacity2=0.1;rotation=0;size=14;fillColor=#FFB366;" parent="1" vertex="1">
          <mxGeometry x="516.99" y="224.32" width="20" height="66.25" as="geometry" />
        </mxCell>
        <mxCell id="VErfhOKP2oG6R9ijQwRs-52" value="Z&lt;sub&gt;pos&lt;/sub&gt;&lt;sup&gt;t-1&lt;/sup&gt;" style="text;html=1;align=center;verticalAlign=middle;resizable=0;points=[];autosize=1;strokeColor=none;fillColor=none;" parent="1" vertex="1">
          <mxGeometry x="489.96000000000004" y="289.57000000000005" width="60" height="30" as="geometry" />
        </mxCell>
        <mxCell id="VErfhOKP2oG6R9ijQwRs-53" value="" style="rounded=1;whiteSpace=wrap;html=1;fillColor=#FFFFCC;" parent="1" vertex="1">
          <mxGeometry x="373.93" y="229.57" width="16.03" height="60" as="geometry" />
        </mxCell>
        <mxCell id="VErfhOKP2oG6R9ijQwRs-55" value="" style="shape=cube;whiteSpace=wrap;html=1;boundedLbl=1;backgroundOutline=1;darkOpacity=0.05;darkOpacity2=0.1;rotation=0;size=14;fillColor=#FFE6CC;" parent="1" vertex="1">
          <mxGeometry x="568.96" y="224.51" width="20" height="66.25" as="geometry" />
        </mxCell>
        <mxCell id="VErfhOKP2oG6R9ijQwRs-56" value="Z&lt;sub&gt;pos&lt;/sub&gt;&lt;sup&gt;0&lt;/sup&gt;" style="text;html=1;align=center;verticalAlign=middle;resizable=0;points=[];autosize=1;strokeColor=none;fillColor=none;" parent="1" vertex="1">
          <mxGeometry x="575.03" y="289.57" width="50" height="30" as="geometry" />
        </mxCell>
        <mxCell id="VErfhOKP2oG6R9ijQwRs-57" value="" style="shape=trapezoid;perimeter=trapezoidPerimeter;whiteSpace=wrap;html=1;fixedSize=1;rotation=90;fillColor=#FFE599;" parent="1" vertex="1">
          <mxGeometry x="136" y="234.39999999999998" width="80" height="38.75" as="geometry" />
        </mxCell>
        <mxCell id="VbgOxsWMJbJemNrP68dz-123" style="edgeStyle=orthogonalEdgeStyle;rounded=0;orthogonalLoop=1;jettySize=auto;html=1;exitX=0.5;exitY=1;exitDx=0;exitDy=0;entryX=0;entryY=0.5;entryDx=0;entryDy=0;" edge="1" parent="1" source="VErfhOKP2oG6R9ijQwRs-58" target="VbgOxsWMJbJemNrP68dz-26">
          <mxGeometry relative="1" as="geometry" />
        </mxCell>
        <mxCell id="VErfhOKP2oG6R9ijQwRs-58" value="" style="shape=trapezoid;perimeter=trapezoidPerimeter;whiteSpace=wrap;html=1;fixedSize=1;rotation=-90;fillColor=#FFE599;" parent="1" vertex="1">
          <mxGeometry x="592.96" y="234.14" width="81.96" height="39.01" as="geometry" />
        </mxCell>
        <mxCell id="VErfhOKP2oG6R9ijQwRs-66" value="" style="rounded=0;whiteSpace=wrap;html=1;" parent="1" vertex="1">
          <mxGeometry x="407" y="220.85999999999999" width="11" height="71.18" as="geometry" />
        </mxCell>
        <mxCell id="VErfhOKP2oG6R9ijQwRs-67" value="" style="rounded=0;whiteSpace=wrap;html=1;" parent="1" vertex="1">
          <mxGeometry x="422" y="230.57" width="11" height="52" as="geometry" />
        </mxCell>
        <mxCell id="VErfhOKP2oG6R9ijQwRs-68" value="" style="rounded=0;whiteSpace=wrap;html=1;" parent="1" vertex="1">
          <mxGeometry x="462" y="230.63" width="11" height="52" as="geometry" />
        </mxCell>
        <mxCell id="VErfhOKP2oG6R9ijQwRs-69" value="" style="rounded=0;whiteSpace=wrap;html=1;" parent="1" vertex="1">
          <mxGeometry x="476" y="221.85999999999999" width="11" height="71.18" as="geometry" />
        </mxCell>
        <mxCell id="VErfhOKP2oG6R9ijQwRs-71" value="" style="rounded=0;whiteSpace=wrap;html=1;" parent="1" vertex="1">
          <mxGeometry x="436" y="237.63" width="11" height="40" as="geometry" />
        </mxCell>
        <mxCell id="VErfhOKP2oG6R9ijQwRs-72" value="" style="rounded=0;whiteSpace=wrap;html=1;" parent="1" vertex="1">
          <mxGeometry x="449" y="237.63" width="11" height="40" as="geometry" />
        </mxCell>
        <mxCell id="VbgOxsWMJbJemNrP68dz-1" style="edgeStyle=orthogonalEdgeStyle;rounded=0;orthogonalLoop=1;jettySize=auto;html=1;exitX=0.975;exitY=0.447;exitDx=0;exitDy=0;exitPerimeter=0;" edge="1" parent="1" source="VErfhOKP2oG6R9ijQwRs-49">
          <mxGeometry relative="1" as="geometry">
            <mxPoint x="353" y="253.44500000000005" as="sourcePoint" />
            <mxPoint x="374" y="253.63" as="targetPoint" />
          </mxGeometry>
        </mxCell>
        <mxCell id="VbgOxsWMJbJemNrP68dz-2" style="edgeStyle=orthogonalEdgeStyle;rounded=0;orthogonalLoop=1;jettySize=auto;html=1;entryX=0.002;entryY=0.536;entryDx=0;entryDy=0;entryPerimeter=0;exitX=1.005;exitY=0.407;exitDx=0;exitDy=0;exitPerimeter=0;" edge="1" parent="1" source="VErfhOKP2oG6R9ijQwRs-53">
          <mxGeometry relative="1" as="geometry">
            <mxPoint x="392" y="253.63" as="sourcePoint" />
            <mxPoint x="407.1719999999999" y="253.7929600000001" as="targetPoint" />
          </mxGeometry>
        </mxCell>
        <mxCell id="VbgOxsWMJbJemNrP68dz-6" style="edgeStyle=orthogonalEdgeStyle;rounded=0;orthogonalLoop=1;jettySize=auto;html=1;entryX=0.5;entryY=1;entryDx=0;entryDy=0;" edge="1" parent="1" target="VErfhOKP2oG6R9ijQwRs-57">
          <mxGeometry relative="1" as="geometry">
            <mxPoint x="129" y="254.43000000000018" as="sourcePoint" />
          </mxGeometry>
        </mxCell>
        <mxCell id="VbgOxsWMJbJemNrP68dz-7" value="" style="shape=trapezoid;perimeter=trapezoidPerimeter;whiteSpace=wrap;html=1;fixedSize=1;rotation=90;fillColor=#FFE599;" vertex="1" parent="1">
          <mxGeometry x="169" y="59.25" width="80" height="38.75" as="geometry" />
        </mxCell>
        <mxCell id="VbgOxsWMJbJemNrP68dz-8" value="" style="shape=trapezoid;perimeter=trapezoidPerimeter;whiteSpace=wrap;html=1;fixedSize=1;rotation=-90;fillColor=#FFE599;" vertex="1" parent="1">
          <mxGeometry x="252.99999999999994" y="58.99000000000001" width="81.96" height="39.01" as="geometry" />
        </mxCell>
        <mxCell id="VbgOxsWMJbJemNrP68dz-11" value="" style="shape=cube;whiteSpace=wrap;html=1;boundedLbl=1;backgroundOutline=1;darkOpacity=0.05;darkOpacity2=0.1;rotation=0;size=14;fillColor=#FFE6CC;" vertex="1" parent="1">
          <mxGeometry x="244" y="45.629999999999995" width="20" height="66.25" as="geometry" />
        </mxCell>
        <mxCell id="VbgOxsWMJbJemNrP68dz-12" value="" style="shape=image;verticalLabelPosition=bottom;labelBackgroundColor=default;verticalAlign=top;aspect=fixed;imageAspect=0;image=data:image/png,iVBORw0KGgoAAAANSUhEUgAAAIEAAABhCAYAAADx5MLSAAAAAXNSR0IArs4c6QAAAARnQU1BAACxjwv8YQUAAAAJcEhZcwAADsMAAA7DAcdvqGQAAAHLSURBVHhe7dxBTuNAEIbRP1whEivufzJWkeYMzGI0Elh24u5GSbX93g7jLKL6KOPIyuUr+Qqn9rY8wPmIABEgAkRAREBEQERAREBEQERAREBEQERAREBEQERAREBEQERAREBEQERAREBEQERAREBEQERAREBEQERAREBEQERAREBEQERAREBEQERAREBEQERAjhjBNbdcc1se5o7L7N9yfs0tf/K+PEyD6SNY+lh5N5+Xf8c/L8vfkCNeDrYIYNvhIzD8xw4VwdqlgMcOE8FaALbAPoeJYEkA+x3u7oB2h90E7CcCRMDJIli7g8A/hpxtE7BOBIgAESACIgIiAjJ7BK0PlLaefxbTRvB/oHsH64HUbVNGsBz88ufvPIL+2JQfG/cM1RbYNt0m6AkgA687g6kiGBmkTbBtqgh6CeC+aSIY2QLcN00EvWyBx6aIoHcLCGCf8hH0BsB+5SPoZQvsVzoCW+A5ykYwEoAt0KZkBCMB0K5kBCNsgXblIrAFnq9UBKMB2AJ9SkXAa5SJwBZ4nTIR8DplIvCX/DplIhghoDGlIugZZs9r+KlUBGkcasu5bCv9tPHWHYPh/67SEfAc5S4HPJ8IEAEiIMlfpnBIexqZIyUAAAAASUVORK5CYII=;shadow=0;textOpacity=50;" vertex="1" parent="1">
          <mxGeometry x="326.82" y="50.13" width="77.11" height="57.98" as="geometry" />
        </mxCell>
        <mxCell id="VbgOxsWMJbJemNrP68dz-13" value="" style="shape=image;verticalLabelPosition=bottom;labelBackgroundColor=default;verticalAlign=top;aspect=fixed;imageAspect=0;image=data:image/png,iVBORw0KGgoAAAANSUhEUgAAAIEAAABhCAYAAADx5MLSAAAAAXNSR0IArs4c6QAAAARnQU1BAACxjwv8YQUAAAAJcEhZcwAADsMAAA7DAcdvqGQAAAHLSURBVHhe7dxBTuNAEIbRP1whEivufzJWkeYMzGI0Elh24u5GSbX93g7jLKL6KOPIyuUr+Qqn9rY8wPmIABEgAkRAREBEQERAREBEQERAREBEQERAREBEQERAREBEQERAREBEQERAREBEQERAREBEQERAREBEQERAREBEQERAREBEQERAREBEQERAREBEQERAjhjBNbdcc1se5o7L7N9yfs0tf/K+PEyD6SNY+lh5N5+Xf8c/L8vfkCNeDrYIYNvhIzD8xw4VwdqlgMcOE8FaALbAPoeJYEkA+x3u7oB2h90E7CcCRMDJIli7g8A/hpxtE7BOBIgAESACIgIiAjJ7BK0PlLaefxbTRvB/oHsH64HUbVNGsBz88ufvPIL+2JQfG/cM1RbYNt0m6AkgA687g6kiGBmkTbBtqgh6CeC+aSIY2QLcN00EvWyBx6aIoHcLCGCf8hH0BsB+5SPoZQvsVzoCW+A5ykYwEoAt0KZkBCMB0K5kBCNsgXblIrAFnq9UBKMB2AJ9SkXAa5SJwBZ4nTIR8DplIvCX/DplIhghoDGlIugZZs9r+KlUBGkcasu5bCv9tPHWHYPh/67SEfAc5S4HPJ8IEAEiIMlfpnBIexqZIyUAAAAASUVORK5CYII=;shadow=0;" vertex="1" parent="1">
          <mxGeometry x="99.85" y="50.13" width="76.15" height="57.26" as="geometry" />
        </mxCell>
        <mxCell id="VbgOxsWMJbJemNrP68dz-14" value="" style="shape=image;verticalLabelPosition=bottom;labelBackgroundColor=default;verticalAlign=top;aspect=fixed;imageAspect=0;image=data:image/png,iVBORw0KGgoAAAANSUhEUgAAAIAAAABhCAYAAAAeJqnsAAAAAXNSR0IArs4c6QAAAARnQU1BAACxjwv8YQUAAAAJcEhZcwAADsMAAA7DAcdvqGQAAAWRSURBVHhe7dzNTxNPHMfxz+zsQ3lqsw1gUEOUBh8i4YAJf4DevXEimnjz6j9g4h/gwZPRs4kH45mDiYkevHhUozfCBbCQEihlO3R3x4PuuB15ML+fJt39fl8XCnQakn3P7LTdIgBoMKqEAKC15gaoEUIAgHDsXzBaOADiOADiOADiOADiOADiOADiOADiOADiOADiOADiOADiOADiOADiOADiOADiOADiOADiOADiOADiOADiOADiOADiOADiOADiOADiOADiOADiOADiOADiOADiOADiOADiOADiOADiOADiOADiShVAmqaI4xiHh4dot9t4+PAhXrx4Yd+N5ZTm38SlaYperwcpJd69e4c3b96g0WhgY2MDU1NTuHv3rj2EtFL+mzgpJeI4xurqKsbHx9FqtdDpdLCxsWHflf1UigCUUkiSBACwsrKCVquFVqsFpRTGx8dx//59pGlqD2NlOQUopeA4DhzHQZqmSNMUUkokSQLXdbPlDo5Tit7/iuwUUIoA4jjuO8hJkvQdbMdxoLU292El3ANkEadpCiHEb7OeTwFHK00AtiRJTAR88I9XigDyy7vW2qwGWmuzJyj6ae5fKUUA+XN7dgrIfp6/zX5XigCQ2wPYO32e+ScrTQD5GZ4/BfDMP1lpAkBu+ddaQ0oJ8ApwqlIFkD/fZ68MZquAUsq6N0OZAjhquc+vCM1ms+937IfSBHDUzh+5TeHW1pb5GfulFAHYz/uz74UQiOMYALCzs9M3hv0gyvBeQK/XMzM9OxXkN4LZm0Lsl5+rZDneC/A8r2/WZ7fjOEaapnj79q01gmUKvwKsra3h0aNH2N7eRhzHiOMYnufh+fPnuHfvHiYmJnDt2jXcvn3bHkpatgIUPoAHDx4giiJEUYQwDLG/v49utwsAqNVqOHPmDBqNBm7dumUPJa0UATx+/Bjfvn1DFEUIggALCwtmFej1evA8D6Ojozh//jyuXLkCKSVGRkbshyGpFHsApRQ8z8PQ0BAWFxdRq9VQq9UQhiHq9TomJycxOTmJxcVFVKtVPvhHKOwK8OzZM7TbbbiuizAM0Wg0zGXhUko4jgPP8zAxMYGZmRl7OHmFXwH29vaAn0/7ZmdnIaU0S/zQ0BCCIMDIyAgf/FMUMoAnT54gjmN0Oh0EQQDf9+H7PiqVCjzPg+u6CIIAnufZQ5mlkAHkrwI+d+6cWfKzVcD3fUgpcfnyZXsosxQugKdPn5qXez3Pw9mzZ82Mz74KIfjDIH+oUAFsbm7i4ODAXAZer9dRrVbh+77Z9Akh0Gw2sb6+bg9nRyhUAK9eveq75m9hYQFCCLP8Zx8MWV1dxZ07d+zh7AiFCeDjx4/mQCdJAiklqtWqefs3O/9//foV1WrVHs6OUZgAPnz4YGa4EAJzc3Nmx++6LhzHQRRF2Nvbw4ULF+zh7BiFCODly5fodDrodrvQWmN6ehqXLl0yMz/76NenT5+gtcb169fth2DHKEQAzWbTbPxGR0dx9erVvpnvOA56vR7a7TaGh4ft4ewEAx/A69evIYQwz+2zl36z267rIk1TvH//HkopLC0t2Q/BTjDwAayvr/ct9RcvXjSv8mURfPnyBVpr1Go1ezg7xcAH4LoulFJQSmFsbMws/47jQAiB/f19RFGE6elpLC8v28PZKQY+AKUUgiBApVLB7Oxs37V9Wmt8/vwZOzs7uHHjRt849mcGPoAwDFGpVBCGIWZmZszsd10X3W4X7Xabr/b5HwY+gLGxMQghMD8/b17v930fQghsbW3h5s2bqNfr9jD2hwpxQcju7q6Z9fm/lZ/y/XfZBSGFCID9fVkAA38KYP8WB0AcB0AcB0AcB0AcB0AcB0AcB0AcB0AcB0AcB0AcB0AcB0AcB0CcAMDvBdP14zN2jK7vEjX6JoXpAq0AAAAASUVORK5CYII=;" vertex="1" parent="1">
          <mxGeometry x="465.24" y="51.21" width="75.73" height="57.39" as="geometry" />
        </mxCell>
        <mxCell id="VbgOxsWMJbJemNrP68dz-15" value="" style="shape=image;verticalLabelPosition=bottom;labelBackgroundColor=default;verticalAlign=top;aspect=fixed;imageAspect=0;image=data:image/png,iVBORw0KGgoAAAANSUhEUgAAAIAAAABhCAYAAAAeJqnsAAAAAXNSR0IArs4c6QAAAARnQU1BAACxjwv8YQUAAAAJcEhZcwAADsMAAA7DAcdvqGQAAAWRSURBVHhe7dzNTxNPHMfxz+zsQ3lqsw1gUEOUBh8i4YAJf4DevXEimnjz6j9g4h/gwZPRs4kH45mDiYkevHhUozfCBbCQEihlO3R3x4PuuB15ML+fJt39fl8XCnQakn3P7LTdIgBoMKqEAKC15gaoEUIAgHDsXzBaOADiOADiOADiOADiOADiOADiOADiOADiOADiOADiOADiOADiOADiOADiOADiOADiOADiOADiOADiOADiOADiOADiOADiOADiOADiOADiOADiOADiOADiOADiOADiOADiOADiOADiOADiOADiShVAmqaI4xiHh4dot9t4+PAhXrx4Yd+N5ZTm38SlaYperwcpJd69e4c3b96g0WhgY2MDU1NTuHv3rj2EtFL+mzgpJeI4xurqKsbHx9FqtdDpdLCxsWHflf1UigCUUkiSBACwsrKCVquFVqsFpRTGx8dx//59pGlqD2NlOQUopeA4DhzHQZqmSNMUUkokSQLXdbPlDo5Tit7/iuwUUIoA4jjuO8hJkvQdbMdxoLU292El3ANkEadpCiHEb7OeTwFHK00AtiRJTAR88I9XigDyy7vW2qwGWmuzJyj6ae5fKUUA+XN7dgrIfp6/zX5XigCQ2wPYO32e+ScrTQD5GZ4/BfDMP1lpAkBu+ddaQ0oJ8ApwqlIFkD/fZ68MZquAUsq6N0OZAjhquc+vCM1ms+937IfSBHDUzh+5TeHW1pb5GfulFAHYz/uz74UQiOMYALCzs9M3hv0gyvBeQK/XMzM9OxXkN4LZm0Lsl5+rZDneC/A8r2/WZ7fjOEaapnj79q01gmUKvwKsra3h0aNH2N7eRhzHiOMYnufh+fPnuHfvHiYmJnDt2jXcvn3bHkpatgIUPoAHDx4giiJEUYQwDLG/v49utwsAqNVqOHPmDBqNBm7dumUPJa0UATx+/Bjfvn1DFEUIggALCwtmFej1evA8D6Ojozh//jyuXLkCKSVGRkbshyGpFHsApRQ8z8PQ0BAWFxdRq9VQq9UQhiHq9TomJycxOTmJxcVFVKtVPvhHKOwK8OzZM7TbbbiuizAM0Wg0zGXhUko4jgPP8zAxMYGZmRl7OHmFXwH29vaAn0/7ZmdnIaU0S/zQ0BCCIMDIyAgf/FMUMoAnT54gjmN0Oh0EQQDf9+H7PiqVCjzPg+u6CIIAnufZQ5mlkAHkrwI+d+6cWfKzVcD3fUgpcfnyZXsosxQugKdPn5qXez3Pw9mzZ82Mz74KIfjDIH+oUAFsbm7i4ODAXAZer9dRrVbh+77Z9Akh0Gw2sb6+bg9nRyhUAK9eveq75m9hYQFCCLP8Zx8MWV1dxZ07d+zh7AiFCeDjx4/mQCdJAiklqtWqefs3O/9//foV1WrVHs6OUZgAPnz4YGa4EAJzc3Nmx++6LhzHQRRF2Nvbw4ULF+zh7BiFCODly5fodDrodrvQWmN6ehqXLl0yMz/76NenT5+gtcb169fth2DHKEQAzWbTbPxGR0dx9erVvpnvOA56vR7a7TaGh4ft4ewEAx/A69evIYQwz+2zl36z267rIk1TvH//HkopLC0t2Q/BTjDwAayvr/ct9RcvXjSv8mURfPnyBVpr1Go1ezg7xcAH4LoulFJQSmFsbMws/47jQAiB/f19RFGE6elpLC8v28PZKQY+AKUUgiBApVLB7Oxs37V9Wmt8/vwZOzs7uHHjRt849mcGPoAwDFGpVBCGIWZmZszsd10X3W4X7Xabr/b5HwY+gLGxMQghMD8/b17v930fQghsbW3h5s2bqNfr9jD2hwpxQcju7q6Z9fm/lZ/y/XfZBSGFCID9fVkAA38KYP8WB0AcB0AcB0AcB0AcB0AcB0AcB0AcB0AcB0AcB0AcB0AcB0AcB0CcAMDvBdP14zN2jK7vEjX6JoXpAq0AAAAASUVORK5CYII=;" vertex="1" parent="1">
          <mxGeometry x="690.03" y="51.21" width="79.41" height="60.19" as="geometry" />
        </mxCell>
        <mxCell id="VbgOxsWMJbJemNrP68dz-16" value="" style="shape=trapezoid;perimeter=trapezoidPerimeter;whiteSpace=wrap;html=1;fixedSize=1;rotation=90;fillColor=#F19C99;" vertex="1" parent="1">
          <mxGeometry x="529.96" y="59.260000000000005" width="80" height="38.75" as="geometry" />
        </mxCell>
        <mxCell id="VbgOxsWMJbJemNrP68dz-17" value="" style="shape=trapezoid;perimeter=trapezoidPerimeter;whiteSpace=wrap;html=1;fixedSize=1;rotation=-90;fillColor=#F19C99;" vertex="1" parent="1">
          <mxGeometry x="616.03" y="63.680000000000014" width="81.96" height="39.01" as="geometry" />
        </mxCell>
        <mxCell id="VbgOxsWMJbJemNrP68dz-18" value="" style="shape=cube;whiteSpace=wrap;html=1;boundedLbl=1;backgroundOutline=1;darkOpacity=0.05;darkOpacity2=0.1;rotation=0;size=14;fillColor=#FFCCE6;" vertex="1" parent="1">
          <mxGeometry x="605" y="45.99" width="20" height="66.25" as="geometry" />
        </mxCell>
        <mxCell id="VbgOxsWMJbJemNrP68dz-19" value="" style="endArrow=none;html=1;rounded=0;" edge="1" parent="1">
          <mxGeometry width="50" height="50" relative="1" as="geometry">
            <mxPoint x="30" y="167.63" as="sourcePoint" />
            <mxPoint x="810" y="168" as="targetPoint" />
          </mxGeometry>
        </mxCell>
        <mxCell id="VbgOxsWMJbJemNrP68dz-25" value="Shadow Interaction Position Image" style="rounded=0;whiteSpace=wrap;html=1;fontSize=17;" vertex="1" parent="1">
          <mxGeometry x="50" y="226.64" width="79" height="54.26" as="geometry" />
        </mxCell>
        <mxCell id="VbgOxsWMJbJemNrP68dz-26" value="Shadow Interaction Position Image" style="rounded=0;whiteSpace=wrap;html=1;fontSize=17;" vertex="1" parent="1">
          <mxGeometry x="681.56" y="223.64" width="80" height="60" as="geometry" />
        </mxCell>
        <mxCell id="VbgOxsWMJbJemNrP68dz-27" style="edgeStyle=orthogonalEdgeStyle;rounded=0;orthogonalLoop=1;jettySize=auto;html=1;exitX=0.5;exitY=0;exitDx=0;exitDy=0;entryX=0.048;entryY=0.458;entryDx=0;entryDy=0;entryPerimeter=0;" edge="1" parent="1" source="VErfhOKP2oG6R9ijQwRs-57" target="VErfhOKP2oG6R9ijQwRs-38">
          <mxGeometry relative="1" as="geometry" />
        </mxCell>
        <mxCell id="VbgOxsWMJbJemNrP68dz-30" value="" style="shape=cube;whiteSpace=wrap;html=1;boundedLbl=1;backgroundOutline=1;darkOpacity=0.05;darkOpacity2=0.1;rotation=0;size=14;fillColor=#FFCCE6;" vertex="1" parent="1">
          <mxGeometry x="191.95999999999998" y="520.31" width="20" height="66.25" as="geometry" />
        </mxCell>
        <mxCell id="VbgOxsWMJbJemNrP68dz-31" value="Z&lt;sub&gt;scale&lt;/sub&gt;&lt;sup&gt;0&lt;/sup&gt;" style="text;html=1;align=center;verticalAlign=middle;resizable=0;points=[];autosize=1;strokeColor=none;fillColor=none;" vertex="1" parent="1">
          <mxGeometry x="171.96" y="586.5600000000001" width="60" height="30" as="geometry" />
        </mxCell>
        <mxCell id="VbgOxsWMJbJemNrP68dz-32" value="" style="shape=cube;whiteSpace=wrap;html=1;boundedLbl=1;backgroundOutline=1;darkOpacity=0.05;darkOpacity2=0.1;rotation=0;size=14;fillColor=#FF0080;" vertex="1" parent="1">
          <mxGeometry x="244.95999999999998" y="520.31" width="20" height="66.25" as="geometry" />
        </mxCell>
        <mxCell id="VbgOxsWMJbJemNrP68dz-33" value="Z&lt;sub&gt;scale&lt;/sub&gt;&lt;sup&gt;T&lt;/sup&gt;" style="text;html=1;align=center;verticalAlign=middle;resizable=0;points=[];autosize=1;strokeColor=none;fillColor=none;" vertex="1" parent="1">
          <mxGeometry x="228.93" y="586.5600000000001" width="60" height="30" as="geometry" />
        </mxCell>
        <mxCell id="VbgOxsWMJbJemNrP68dz-34" value="" style="shape=cube;whiteSpace=wrap;html=1;boundedLbl=1;backgroundOutline=1;darkOpacity=0.05;darkOpacity2=0.1;rotation=0;size=14;fillColor=#FF3399;" vertex="1" parent="1">
          <mxGeometry x="298.96" y="520.31" width="20" height="66.25" as="geometry" />
        </mxCell>
        <mxCell id="VbgOxsWMJbJemNrP68dz-35" value="Z&lt;sub&gt;scale&lt;/sub&gt;&lt;sup&gt;t&lt;/sup&gt;" style="text;html=1;align=center;verticalAlign=middle;resizable=0;points=[];autosize=1;strokeColor=none;fillColor=none;" vertex="1" parent="1">
          <mxGeometry x="283.96" y="586.5600000000001" width="60" height="30" as="geometry" />
        </mxCell>
        <mxCell id="VbgOxsWMJbJemNrP68dz-36" value="" style="shape=cube;whiteSpace=wrap;html=1;boundedLbl=1;backgroundOutline=1;darkOpacity=0.05;darkOpacity2=0.1;rotation=0;size=14;fillColor=#FF66B3;" vertex="1" parent="1">
          <mxGeometry x="489.99" y="520.31" width="20" height="66.25" as="geometry" />
        </mxCell>
        <mxCell id="VbgOxsWMJbJemNrP68dz-37" value="Z&lt;sub&gt;scale&lt;/sub&gt;&lt;sup&gt;t-1&lt;/sup&gt;" style="text;html=1;align=center;verticalAlign=middle;resizable=0;points=[];autosize=1;strokeColor=none;fillColor=none;" vertex="1" parent="1">
          <mxGeometry x="468.0300000000001" y="586.5600000000001" width="70" height="30" as="geometry" />
        </mxCell>
        <mxCell id="VbgOxsWMJbJemNrP68dz-40" value="" style="shape=cube;whiteSpace=wrap;html=1;boundedLbl=1;backgroundOutline=1;darkOpacity=0.05;darkOpacity2=0.1;rotation=0;size=14;fillColor=#FFCCE6;" vertex="1" parent="1">
          <mxGeometry x="537.99" y="520.31" width="20" height="66.25" as="geometry" />
        </mxCell>
        <mxCell id="VbgOxsWMJbJemNrP68dz-41" value="Z&lt;sub&gt;scale&lt;/sub&gt;&lt;sup&gt;0&lt;/sup&gt;" style="text;html=1;align=center;verticalAlign=middle;resizable=0;points=[];autosize=1;strokeColor=none;fillColor=none;" vertex="1" parent="1">
          <mxGeometry x="521.96" y="586.5600000000001" width="60" height="30" as="geometry" />
        </mxCell>
        <mxCell id="VbgOxsWMJbJemNrP68dz-42" value="" style="shape=trapezoid;perimeter=trapezoidPerimeter;whiteSpace=wrap;html=1;fixedSize=1;rotation=90;fillColor=#F19C99;" vertex="1" parent="1">
          <mxGeometry x="107.96000000000001" y="531.39" width="80" height="38.75" as="geometry" />
        </mxCell>
        <mxCell id="VbgOxsWMJbJemNrP68dz-43" value="" style="shape=trapezoid;perimeter=trapezoidPerimeter;whiteSpace=wrap;html=1;fixedSize=1;rotation=-90;fillColor=#F19C99;" vertex="1" parent="1">
          <mxGeometry x="556.3" y="535.69" width="81.96" height="30.4" as="geometry" />
        </mxCell>
        <mxCell id="VbgOxsWMJbJemNrP68dz-46" value="" style="rounded=1;whiteSpace=wrap;html=1;fillColor=#99CAFF;strokeColor=#36393d;" vertex="1" parent="1">
          <mxGeometry x="337" y="507.01" width="135" height="92.86" as="geometry" />
        </mxCell>
        <mxCell id="VbgOxsWMJbJemNrP68dz-47" value="" style="rounded=0;whiteSpace=wrap;html=1;" vertex="1" parent="1">
          <mxGeometry x="379.96000000000004" y="517.85" width="11" height="71.18" as="geometry" />
        </mxCell>
        <mxCell id="VbgOxsWMJbJemNrP68dz-48" value="" style="rounded=0;whiteSpace=wrap;html=1;" vertex="1" parent="1">
          <mxGeometry x="394.96000000000004" y="527.56" width="11" height="52" as="geometry" />
        </mxCell>
        <mxCell id="VbgOxsWMJbJemNrP68dz-49" value="" style="rounded=0;whiteSpace=wrap;html=1;" vertex="1" parent="1">
          <mxGeometry x="434.96000000000004" y="527.62" width="11" height="52" as="geometry" />
        </mxCell>
        <mxCell id="VbgOxsWMJbJemNrP68dz-50" value="" style="rounded=0;whiteSpace=wrap;html=1;" vertex="1" parent="1">
          <mxGeometry x="448.96000000000004" y="518.85" width="11" height="71.18" as="geometry" />
        </mxCell>
        <mxCell id="VbgOxsWMJbJemNrP68dz-51" value="" style="rounded=0;whiteSpace=wrap;html=1;" vertex="1" parent="1">
          <mxGeometry x="408.96000000000004" y="534.62" width="11" height="40" as="geometry" />
        </mxCell>
        <mxCell id="VbgOxsWMJbJemNrP68dz-52" value="" style="rounded=0;whiteSpace=wrap;html=1;" vertex="1" parent="1">
          <mxGeometry x="421.96000000000004" y="534.62" width="11" height="40" as="geometry" />
        </mxCell>
        <mxCell id="VbgOxsWMJbJemNrP68dz-53" style="edgeStyle=orthogonalEdgeStyle;rounded=0;orthogonalLoop=1;jettySize=auto;html=1;entryX=-0.023;entryY=0.408;entryDx=0;entryDy=0;entryPerimeter=0;" edge="1" parent="1" target="VbgOxsWMJbJemNrP68dz-38">
          <mxGeometry relative="1" as="geometry">
            <mxPoint x="319" y="550.63" as="sourcePoint" />
            <mxPoint x="338.99651000000017" y="550.68" as="targetPoint" />
          </mxGeometry>
        </mxCell>
        <mxCell id="VbgOxsWMJbJemNrP68dz-55" style="edgeStyle=orthogonalEdgeStyle;rounded=0;orthogonalLoop=1;jettySize=auto;html=1;entryX=-0.051;entryY=0.449;entryDx=0;entryDy=0;entryPerimeter=0;" edge="1" parent="1" target="VbgOxsWMJbJemNrP68dz-36">
          <mxGeometry relative="1" as="geometry">
            <mxPoint x="465" y="549.63" as="sourcePoint" />
            <mxPoint x="482.28999999999996" y="551.0612499999999" as="targetPoint" />
          </mxGeometry>
        </mxCell>
        <mxCell id="VbgOxsWMJbJemNrP68dz-57" style="edgeStyle=orthogonalEdgeStyle;rounded=0;orthogonalLoop=1;jettySize=auto;html=1;entryX=0.5;entryY=1;entryDx=0;entryDy=0;" edge="1" parent="1" target="VbgOxsWMJbJemNrP68dz-42">
          <mxGeometry relative="1" as="geometry">
            <mxPoint x="100.96000000000001" y="551.4200000000002" as="sourcePoint" />
          </mxGeometry>
        </mxCell>
        <mxCell id="VbgOxsWMJbJemNrP68dz-58" value="Shadow Ratio Image" style="rounded=0;whiteSpace=wrap;html=1;fontSize=17;" vertex="1" parent="1">
          <mxGeometry x="20.849999999999994" y="523.5000000000001" width="80.15" height="59.87" as="geometry" />
        </mxCell>
        <mxCell id="VbgOxsWMJbJemNrP68dz-59" style="edgeStyle=orthogonalEdgeStyle;rounded=0;orthogonalLoop=1;jettySize=auto;html=1;exitX=0.5;exitY=0;exitDx=0;exitDy=0;entryX=0.048;entryY=0.458;entryDx=0;entryDy=0;entryPerimeter=0;" edge="1" parent="1" source="VbgOxsWMJbJemNrP68dz-42" target="VbgOxsWMJbJemNrP68dz-30">
          <mxGeometry relative="1" as="geometry" />
        </mxCell>
        <mxCell id="VbgOxsWMJbJemNrP68dz-71" style="edgeStyle=orthogonalEdgeStyle;rounded=0;orthogonalLoop=1;jettySize=auto;html=1;exitX=0.5;exitY=0;exitDx=0;exitDy=0;entryX=0.048;entryY=0.458;entryDx=0;entryDy=0;entryPerimeter=0;" edge="1" parent="1">
          <mxGeometry relative="1" as="geometry">
            <mxPoint x="215.95999999999998" y="551.63" as="sourcePoint" />
            <mxPoint x="241.95999999999998" y="551.63" as="targetPoint" />
          </mxGeometry>
        </mxCell>
        <mxCell id="VbgOxsWMJbJemNrP68dz-72" style="edgeStyle=orthogonalEdgeStyle;rounded=0;orthogonalLoop=1;jettySize=auto;html=1;exitX=0.5;exitY=0;exitDx=0;exitDy=0;" edge="1" parent="1">
          <mxGeometry relative="1" as="geometry">
            <mxPoint x="557.96" y="550.56" as="sourcePoint" />
            <mxPoint x="582" y="551" as="targetPoint" />
          </mxGeometry>
        </mxCell>
        <mxCell id="VbgOxsWMJbJemNrP68dz-83" style="edgeStyle=orthogonalEdgeStyle;rounded=0;orthogonalLoop=1;jettySize=auto;html=1;exitX=0;exitY=0;exitDx=7;exitDy=59.25;exitPerimeter=0;entryX=0.5;entryY=0;entryDx=0;entryDy=0;entryPerimeter=0;" edge="1" parent="1" source="VErfhOKP2oG6R9ijQwRs-55" target="VbgOxsWMJbJemNrP68dz-124">
          <mxGeometry relative="1" as="geometry">
            <mxPoint x="588.03" y="384.76" as="targetPoint" />
            <Array as="points">
              <mxPoint x="576" y="350" />
              <mxPoint x="360" y="350" />
            </Array>
          </mxGeometry>
        </mxCell>
        <mxCell id="VbgOxsWMJbJemNrP68dz-98" style="edgeStyle=orthogonalEdgeStyle;rounded=0;orthogonalLoop=1;jettySize=auto;html=1;exitX=0.5;exitY=1;exitDx=0;exitDy=0;entryX=0;entryY=0.5;entryDx=0;entryDy=0;entryPerimeter=0;" edge="1" parent="1" source="VbgOxsWMJbJemNrP68dz-43" target="VbgOxsWMJbJemNrP68dz-97">
          <mxGeometry relative="1" as="geometry">
            <mxPoint x="661.36" y="485.2399999999998" as="targetPoint" />
            <mxPoint x="672.9200000000002" y="483.87636363636375" as="sourcePoint" />
            <Array as="points">
              <mxPoint x="630" y="551" />
              <mxPoint x="630" y="460" />
              <mxPoint x="612" y="460" />
            </Array>
          </mxGeometry>
        </mxCell>
        <mxCell id="VbgOxsWMJbJemNrP68dz-91" style="edgeStyle=orthogonalEdgeStyle;rounded=0;orthogonalLoop=1;jettySize=auto;html=1;exitX=0.5;exitY=0;exitDx=0;exitDy=0;entryX=0.048;entryY=0.458;entryDx=0;entryDy=0;entryPerimeter=0;" edge="1" parent="1">
          <mxGeometry relative="1" as="geometry">
            <mxPoint x="243.95999999999998" y="253.51999999999998" as="sourcePoint" />
            <mxPoint x="269.96" y="253.51999999999998" as="targetPoint" />
          </mxGeometry>
        </mxCell>
        <mxCell id="VbgOxsWMJbJemNrP68dz-94" style="edgeStyle=orthogonalEdgeStyle;rounded=0;orthogonalLoop=1;jettySize=auto;html=1;entryX=0.141;entryY=0.469;entryDx=0;entryDy=0;entryPerimeter=0;exitX=0.5;exitY=0;exitDx=0;exitDy=0;" edge="1" parent="1" source="VErfhOKP2oG6R9ijQwRs-40">
          <mxGeometry relative="1" as="geometry">
            <mxPoint x="274" y="409" as="sourcePoint" />
            <mxPoint x="288.7900000000002" y="408.70124999999996" as="targetPoint" />
          </mxGeometry>
        </mxCell>
        <mxCell id="VbgOxsWMJbJemNrP68dz-121" style="edgeStyle=orthogonalEdgeStyle;rounded=0;orthogonalLoop=1;jettySize=auto;html=1;exitX=0.5;exitY=1;exitDx=0;exitDy=0;exitPerimeter=0;entryX=0;entryY=0.5;entryDx=0;entryDy=0;" edge="1" parent="1" source="VbgOxsWMJbJemNrP68dz-97" target="VbgOxsWMJbJemNrP68dz-117">
          <mxGeometry relative="1" as="geometry" />
        </mxCell>
        <mxCell id="VbgOxsWMJbJemNrP68dz-97" value="" style="verticalLabelPosition=bottom;verticalAlign=top;html=1;shape=mxgraph.flowchart.or;direction=north;" vertex="1" parent="1">
          <mxGeometry x="602" y="400.76" width="20" height="20" as="geometry" />
        </mxCell>
        <mxCell id="VbgOxsWMJbJemNrP68dz-100" style="edgeStyle=orthogonalEdgeStyle;rounded=0;orthogonalLoop=1;jettySize=auto;html=1;exitX=0.5;exitY=0;exitDx=0;exitDy=0;entryX=0.048;entryY=0.458;entryDx=0;entryDy=0;entryPerimeter=0;" edge="1" parent="1">
          <mxGeometry relative="1" as="geometry">
            <mxPoint x="589" y="253.03999999999996" as="sourcePoint" />
            <mxPoint x="615" y="253.03999999999996" as="targetPoint" />
          </mxGeometry>
        </mxCell>
        <mxCell id="VbgOxsWMJbJemNrP68dz-101" value="&lt;span style=&quot;color: rgb(0, 0, 0); font-family: Helvetica; font-size: 17px; font-style: normal; font-variant-ligatures: normal; font-variant-caps: normal; font-weight: 400; letter-spacing: normal; orphans: 2; text-align: center; text-indent: 0px; text-transform: none; widows: 2; word-spacing: 0px; -webkit-text-stroke-width: 0px; white-space: normal; background-color: rgb(236, 236, 236); text-decoration-thickness: initial; text-decoration-style: initial; text-decoration-color: initial; display: inline !important; float: none;&quot;&gt;Shadow Interaction Position Image&lt;/span&gt;" style="text;whiteSpace=wrap;html=1;textShadow=0;fillColor=none;" vertex="1" parent="1">
          <mxGeometry x="110.99" y="135.63" width="300" height="40" as="geometry" />
        </mxCell>
        <mxCell id="VbgOxsWMJbJemNrP68dz-103" value="&lt;span style=&quot;color: rgb(0, 0, 0); font-family: Helvetica; font-size: 17px; font-style: normal; font-variant-ligatures: normal; font-variant-caps: normal; font-weight: 400; letter-spacing: normal; orphans: 2; text-align: center; text-indent: 0px; text-transform: none; widows: 2; word-spacing: 0px; -webkit-text-stroke-width: 0px; white-space: normal; background-color: rgb(236, 236, 236); text-decoration-thickness: initial; text-decoration-style: initial; text-decoration-color: initial; display: inline !important; float: none;&quot;&gt;Shadow Ratio Image&lt;/span&gt;" style="text;whiteSpace=wrap;html=1;" vertex="1" parent="1">
          <mxGeometry x="529.9599999999999" y="135.63" width="190" height="40" as="geometry" />
        </mxCell>
        <mxCell id="VbgOxsWMJbJemNrP68dz-107" style="edgeStyle=orthogonalEdgeStyle;rounded=0;orthogonalLoop=1;jettySize=auto;html=1;exitX=0.5;exitY=1;exitDx=0;exitDy=0;entryX=0;entryY=0.457;entryDx=0;entryDy=0;entryPerimeter=0;" edge="1" parent="1" source="VbgOxsWMJbJemNrP68dz-43">
          <mxGeometry relative="1" as="geometry">
            <mxPoint x="650" y="550.5699999999999" as="targetPoint" />
          </mxGeometry>
        </mxCell>
        <mxCell id="VbgOxsWMJbJemNrP68dz-38" value="" style="rounded=1;whiteSpace=wrap;html=1;fillColor=#CCE5FF;" vertex="1" parent="1">
          <mxGeometry x="351" y="526.56" width="16.03" height="60" as="geometry" />
        </mxCell>
        <mxCell id="VbgOxsWMJbJemNrP68dz-65" style="edgeStyle=orthogonalEdgeStyle;rounded=0;orthogonalLoop=1;jettySize=auto;html=1;entryX=0.5;entryY=0;entryDx=0;entryDy=0;exitX=0.5;exitY=1;exitDx=0;exitDy=0;exitPerimeter=0;" edge="1" parent="1" source="VbgOxsWMJbJemNrP68dz-124" target="VbgOxsWMJbJemNrP68dz-38">
          <mxGeometry relative="1" as="geometry">
            <mxPoint x="580.0000000000002" y="444.01" as="sourcePoint" />
            <Array as="points">
              <mxPoint x="360" y="421" />
              <mxPoint x="360" y="527" />
            </Array>
          </mxGeometry>
        </mxCell>
        <mxCell id="VbgOxsWMJbJemNrP68dz-110" style="edgeStyle=orthogonalEdgeStyle;rounded=0;orthogonalLoop=1;jettySize=auto;html=1;entryX=-0.023;entryY=0.408;entryDx=0;entryDy=0;entryPerimeter=0;exitX=0.996;exitY=0.402;exitDx=0;exitDy=0;exitPerimeter=0;" edge="1" parent="1" source="VbgOxsWMJbJemNrP68dz-38">
          <mxGeometry relative="1" as="geometry">
            <mxPoint x="365" y="550.63" as="sourcePoint" />
            <mxPoint x="380" y="550.65" as="targetPoint" />
          </mxGeometry>
        </mxCell>
        <mxCell id="VbgOxsWMJbJemNrP68dz-111" style="edgeStyle=orthogonalEdgeStyle;rounded=0;orthogonalLoop=1;jettySize=auto;html=1;entryX=-0.013;entryY=0.445;entryDx=0;entryDy=0;entryPerimeter=0;exitX=1.005;exitY=0.407;exitDx=0;exitDy=0;exitPerimeter=0;" edge="1" parent="1" target="VErfhOKP2oG6R9ijQwRs-51">
          <mxGeometry relative="1" as="geometry">
            <mxPoint x="490" y="253.69" as="sourcePoint" />
            <mxPoint x="507.1719999999999" y="253.8529600000001" as="targetPoint" />
          </mxGeometry>
        </mxCell>
        <mxCell id="VbgOxsWMJbJemNrP68dz-112" style="edgeStyle=orthogonalEdgeStyle;rounded=0;orthogonalLoop=1;jettySize=auto;html=1;exitX=0.5;exitY=0;exitDx=0;exitDy=0;entryX=0.048;entryY=0.458;entryDx=0;entryDy=0;entryPerimeter=0;dashed=1;" edge="1" parent="1">
          <mxGeometry relative="1" as="geometry">
            <mxPoint x="268.96999999999997" y="551.3399999999999" as="sourcePoint" />
            <mxPoint x="294.96999999999997" y="551.3399999999999" as="targetPoint" />
          </mxGeometry>
        </mxCell>
        <mxCell id="VbgOxsWMJbJemNrP68dz-113" style="edgeStyle=orthogonalEdgeStyle;rounded=0;orthogonalLoop=1;jettySize=auto;html=1;exitX=0.5;exitY=0;exitDx=0;exitDy=0;entryX=0.048;entryY=0.458;entryDx=0;entryDy=0;entryPerimeter=0;dashed=1;" edge="1" parent="1">
          <mxGeometry relative="1" as="geometry">
            <mxPoint x="512.03" y="550.46" as="sourcePoint" />
            <mxPoint x="538.03" y="550.46" as="targetPoint" />
          </mxGeometry>
        </mxCell>
        <mxCell id="VbgOxsWMJbJemNrP68dz-114" style="edgeStyle=orthogonalEdgeStyle;rounded=0;orthogonalLoop=1;jettySize=auto;html=1;exitX=0.5;exitY=0;exitDx=0;exitDy=0;entryX=0.048;entryY=0.458;entryDx=0;entryDy=0;entryPerimeter=0;dashed=1;" edge="1" parent="1">
          <mxGeometry relative="1" as="geometry">
            <mxPoint x="540.03" y="253.48000000000002" as="sourcePoint" />
            <mxPoint x="566.03" y="253.48000000000002" as="targetPoint" />
          </mxGeometry>
        </mxCell>
        <mxCell id="VbgOxsWMJbJemNrP68dz-115" style="edgeStyle=orthogonalEdgeStyle;rounded=0;orthogonalLoop=1;jettySize=auto;html=1;exitX=0.5;exitY=0;exitDx=0;exitDy=0;entryX=0.048;entryY=0.458;entryDx=0;entryDy=0;entryPerimeter=0;dashed=1;" edge="1" parent="1">
          <mxGeometry relative="1" as="geometry">
            <mxPoint x="298.03" y="253.48000000000002" as="sourcePoint" />
            <mxPoint x="324.03" y="253.48000000000002" as="targetPoint" />
            <Array as="points">
              <mxPoint x="317" y="253" />
              <mxPoint x="317" y="253" />
            </Array>
          </mxGeometry>
        </mxCell>
        <mxCell id="VbgOxsWMJbJemNrP68dz-116" value="Shadow Ratio Image" style="rounded=0;whiteSpace=wrap;html=1;fontSize=17;" vertex="1" parent="1">
          <mxGeometry x="653.56" y="520.8300000000002" width="80.15" height="59.87" as="geometry" />
        </mxCell>
        <mxCell id="VbgOxsWMJbJemNrP68dz-122" style="edgeStyle=orthogonalEdgeStyle;rounded=0;orthogonalLoop=1;jettySize=auto;html=1;exitX=1;exitY=0.5;exitDx=0;exitDy=0;entryX=0;entryY=0.5;entryDx=0;entryDy=0;" edge="1" parent="1" source="VbgOxsWMJbJemNrP68dz-117" target="VbgOxsWMJbJemNrP68dz-118">
          <mxGeometry relative="1" as="geometry" />
        </mxCell>
        <mxCell id="VbgOxsWMJbJemNrP68dz-117" value="" style="rounded=1;whiteSpace=wrap;html=1;" vertex="1" parent="1">
          <mxGeometry x="636.92" y="380.82" width="78" height="60" as="geometry" />
        </mxCell>
        <mxCell id="VbgOxsWMJbJemNrP68dz-118" value="Final Image" style="rounded=0;whiteSpace=wrap;html=1;fontSize=17;" vertex="1" parent="1">
          <mxGeometry x="741.9999999999999" y="380.8100000000002" width="80.15" height="59.87" as="geometry" />
        </mxCell>
        <mxCell id="VbgOxsWMJbJemNrP68dz-119" value="Shadow Free Image" style="rounded=0;whiteSpace=wrap;html=1;fontSize=17;" vertex="1" parent="1">
          <mxGeometry x="497.87999999999977" y="380.95000000000016" width="80.15" height="59.87" as="geometry" />
        </mxCell>
        <mxCell id="VbgOxsWMJbJemNrP68dz-120" style="edgeStyle=orthogonalEdgeStyle;rounded=0;orthogonalLoop=1;jettySize=auto;html=1;exitX=1;exitY=0.5;exitDx=0;exitDy=0;entryX=0.5;entryY=0;entryDx=0;entryDy=0;entryPerimeter=0;" edge="1" parent="1" source="VbgOxsWMJbJemNrP68dz-119" target="VbgOxsWMJbJemNrP68dz-97">
          <mxGeometry relative="1" as="geometry" />
        </mxCell>
        <mxCell id="VbgOxsWMJbJemNrP68dz-124" value="" style="verticalLabelPosition=bottom;verticalAlign=top;html=1;shape=mxgraph.flowchart.summing_function;" vertex="1" parent="1">
          <mxGeometry x="350" y="400" width="20" height="20" as="geometry" />
        </mxCell>
      </root>
    </mxGraphModel>
  </diagram>
</mxfile>
